<svg width="2353" height="609" viewBox="0 0 2353 609" fill="none" xmlns="http://www.w3.org/2000/svg">
<path d="M374.039 67.8166H350.845C334.458 67.8166 321.222 81.1792 321.222 97.5659V301.526L403.79 318.922V97.5659C403.79 81.1792 390.426 67.8166 374.039 67.8166Z" fill="#F17041"/>
<path d="M489.382 -0.00331613H466.187C449.8 -0.00331613 436.563 13.3593 436.563 29.746V325.854L519.131 343.25V29.746C519.131 13.3593 505.77 -0.00331613 489.382 -0.00331613Z" fill="#F17041"/>
<path d="M258.697 151.896H235.628C219.114 151.896 205.88 165.259 205.88 181.646V277.198L288.446 294.594V181.646C288.446 165.259 275.085 151.896 258.697 151.896Z" fill="#F17041"/>
<path d="M116.047 367.626C116.017 367.714 116.017 367.774 115.988 367.862C112.353 385.267 97.0159 397.176 79.8759 397.176C77.3653 397.176 74.8533 396.88 72.2533 396.438C52.3346 392.152 39.5986 372.619 43.7946 352.703C47.3999 335.298 62.7666 323.388 79.8759 323.388C82.3893 323.388 84.8999 323.566 87.5013 324.127C100.089 326.787 109.841 335.623 114.215 346.792C116.756 353.204 117.524 360.386 116.047 367.626ZM558.532 379.57C526.008 372.704 483.533 363.747 436.82 353.884C436.791 353.884 436.701 353.884 436.643 353.855C435.815 353.678 433.037 353.087 428.545 352.14C427.6 351.934 426.655 351.756 425.679 351.55C424.733 351.343 423.788 351.136 422.813 350.93C414.449 349.186 402.748 346.704 388.681 343.748C387.5 343.483 386.317 343.246 385.136 342.98C373.581 340.558 360.579 337.81 346.66 334.883C345.005 334.528 343.38 334.175 341.725 333.85C338.889 333.228 336.021 332.638 333.127 332.016C330.909 331.544 328.693 331.071 326.448 330.628C310.047 327.142 292.819 323.506 275.443 319.871C272.932 319.34 270.449 318.808 267.967 318.276C262.412 317.094 256.827 315.912 251.271 314.759C244.031 313.223 236.821 311.686 229.699 310.208C228.015 309.854 226.36 309.499 224.704 309.144C222.133 308.612 219.563 308.08 217.021 307.519C211.703 306.396 206.472 305.303 201.36 304.21C195.449 302.998 189.628 301.758 183.895 300.546C162.767 296.083 143.884 292.094 129.108 288.991C127.512 288.636 125.917 288.311 124.351 287.987C118.795 286.804 113.919 285.77 109.871 284.914C109.516 284.854 109.161 284.766 108.836 284.707C101.212 283.111 96.7199 282.164 96.3359 282.076C90.7813 280.954 85.2853 280.392 79.7879 280.392C42.8493 280.392 9.63461 306.19 1.74394 343.779C-7.38673 386.922 20.2426 429.358 63.4173 438.399C68.9133 439.582 74.4986 440.143 79.8759 440.143C90.2186 440.143 100.267 438.104 109.575 434.38L123.464 430.983C132.684 470.048 151.98 505.894 179.079 535.06C210.284 568.511 251.655 593.156 299.823 603.351C315.78 606.75 331.885 608.375 347.607 608.375C453.989 608.375 549.704 534.055 572.457 425.634L576.387 407.027C579.031 394.503 571.056 382.214 558.532 379.57" fill="#F17041"/>
<path d="M779.17 286.949C778.489 279.88 776.14 274.156 771.758 270.454C767.722 266.748 761.998 264.73 754.933 264.73C729.343 264.73 725.645 286.949 725.645 308.153C725.645 329.361 729.343 351.237 754.933 351.237C769.402 351.237 779.504 339.459 780.849 325.659H844.469C841.44 349.219 830.33 367.732 814.174 380.521C798.355 392.976 777.148 399.711 753.58 399.711C701.07 399.711 659 363.358 659 308.153C659 252.948 701.07 216.26 753.58 216.26C799.362 216.26 838.411 238.81 842.447 286.949H779.17Z" fill="black"/>
<path d="M870.231 154.997H936.884V239.486H937.553C948.993 226.02 963.804 216.26 992.077 216.26C1023.39 216.26 1052 235.446 1052 275.501V395.336H985.35V303.782C985.35 283.581 982.997 269.443 963.469 269.443C952.022 269.443 936.884 275.166 936.884 303.105V395.336H870.231V154.997Z" fill="black"/>
<path d="M1194.35 316.906C1186.27 320.946 1177.19 323.302 1168.1 325.324C1153.28 328.688 1145.55 332.39 1145.55 344.172C1145.55 352.248 1154.29 360.328 1166.41 360.328C1181.56 360.328 1193.34 351.237 1194.35 333.066V316.906ZM1258.3 356.292C1258.3 369.416 1258.98 384.227 1266.39 395.336H1198.39C1196.71 390.624 1195.7 383.554 1196.03 378.841H1195.36C1181.22 395.002 1160.7 399.711 1139.15 399.711C1105.49 399.711 1077.55 383.554 1077.55 346.866C1077.55 291.662 1142.18 293.68 1176.18 287.283C1185.27 285.603 1194.35 282.909 1194.35 271.803C1194.35 260.017 1183.25 255.643 1172.47 255.643C1151.94 255.643 1147.89 266.079 1147.56 273.483H1085.62C1086.63 248.912 1098.75 234.435 1115.92 226.359C1132.75 218.278 1154.97 216.26 1175.5 216.26C1258.98 216.26 1258.3 250.93 1258.3 284.592V356.292Z" fill="black"/>
<path d="M1293.15 220.634H1357.11V248.577H1357.78C1368.55 227.704 1382.69 216.264 1406.93 216.264C1413.66 216.264 1420.05 217.271 1426.45 218.951V277.861C1419.72 275.505 1413.66 273.487 1400.2 273.487C1373.94 273.487 1359.81 288.97 1359.81 326.331V395.336H1293.15V220.634Z" fill="black"/>
<path d="M1550.07 220.64H1585.75V261.706H1550.07V322.634C1550.07 338.791 1553.77 345.86 1570.6 345.86C1575.65 345.86 1580.7 345.526 1585.75 344.849V395.341C1572.28 395.341 1557.13 397.359 1543 397.359C1514.72 397.359 1483.41 392.985 1483.41 345.184V261.706H1453.8V220.64H1483.41V167.457H1550.07V220.64Z" fill="black"/>
<path d="M1700.18 247.841C1667.86 247.841 1651.37 272.412 1651.37 309.442C1651.37 344.446 1669.21 370.705 1700.18 370.705C1735.18 370.705 1748.31 339.737 1748.31 309.442C1748.31 277.794 1731.82 247.841 1700.18 247.841ZM1614.34 155.944H1652.71V244.811H1653.39C1663.82 227.978 1685.7 217.545 1705.22 217.545C1760.09 217.545 1786.68 259.284 1786.68 310.111C1786.68 356.897 1763.12 401 1711.62 401C1688.06 401 1662.81 395.276 1651.37 372.381H1650.69V396.283H1614.34V155.944Z" fill="black"/>
<path d="M1816.92 222.252H1852.94V255.915H1853.61C1857.98 237.402 1880.88 217.54 1904.44 217.54C1913.19 217.54 1915.55 218.212 1918.91 218.547V255.577C1913.53 254.904 1907.8 253.893 1902.42 253.893C1876.16 253.893 1855.29 275.105 1855.29 313.472V396.281H1816.92V222.252Z" fill="black"/>
<path d="M2054.08 293.958C2052.73 269.721 2036.24 247.841 2010.32 247.841C1983.72 247.841 1965.55 268.037 1964.54 293.958H2054.08ZM1964.54 319.202C1964.54 346.468 1979.35 370.705 2011.33 370.705C2033.54 370.705 2047.01 360.945 2053.74 341.751H2090.09C2081.68 379.796 2049.36 401 2011.33 401C1956.8 401 1926.17 362.959 1926.17 309.442C1926.17 259.957 1958.48 217.545 2010.32 217.545C2065.18 217.545 2098.85 267.026 2092.45 319.202H1964.54Z" fill="black"/>
<path d="M2099.3 222.252H2140.03L2174.02 352.186H2174.7L2207.35 222.252H2246.06L2277.37 352.186H2278.04L2313.38 222.252H2352.43L2297.9 396.281H2258.51L2226.2 267.02H2225.53L2193.55 396.281H2153.16L2099.3 222.252Z" fill="black"/>
</svg>
