<svg width="2236" height="460" viewBox="0 0 2236 460" fill="none" xmlns="http://www.w3.org/2000/svg">
<path d="M282.774 51.2738H265.238C252.85 51.2738 242.844 61.3759 242.844 73.7643V227.958L305.265 241.109V73.7643C305.265 61.3759 295.162 51.2738 282.774 51.2738Z" fill="#F17041" style="fill:#F17041;fill:color(display-p3 0.9451 0.4392 0.2549);fill-opacity:1;"/>
<path d="M369.972 0.000488281H352.437C340.048 0.000488281 330.041 10.1026 330.041 22.491V246.349L392.462 259.5V22.491C392.462 10.1026 382.361 0.000488281 369.972 0.000488281Z" fill="#F17041" style="fill:#F17041;fill:color(display-p3 0.9451 0.4392 0.2549);fill-opacity:1;"/>
<path d="M195.576 114.836H178.136C165.652 114.836 155.646 124.938 155.646 137.326V209.563L218.067 222.715V137.326C218.067 124.938 207.966 114.836 195.576 114.836Z" fill="#F17041" style="fill:#F17041;fill:color(display-p3 0.9451 0.4392 0.2549);fill-opacity:1;"/>
<path d="M87.7312 277.927C87.709 277.994 87.709 278.039 87.6869 278.106C84.9391 291.264 73.344 300.267 60.3862 300.267C58.4881 300.267 56.5891 300.044 54.6235 299.709C39.565 296.469 29.9365 281.702 33.1087 266.646C35.8344 253.487 47.4515 244.484 60.3862 244.484C62.2863 244.484 64.1843 244.618 66.151 245.042C75.6675 247.053 83.04 253.733 86.3462 262.177C88.2675 267.025 88.8481 272.454 87.7312 277.927ZM422.25 286.957C397.662 281.767 365.551 274.995 330.236 267.539C330.214 267.539 330.146 267.539 330.102 267.516C329.476 267.382 327.376 266.936 323.98 266.22C323.266 266.064 322.551 265.93 321.813 265.774C321.098 265.617 320.384 265.461 319.647 265.305C313.324 263.986 304.477 262.111 293.843 259.876C292.95 259.675 292.056 259.496 291.163 259.295C282.427 257.464 272.597 255.386 262.075 253.174C260.824 252.906 259.595 252.638 258.344 252.392C256.2 251.923 254.032 251.476 251.844 251.006C250.167 250.65 248.492 250.292 246.795 249.957C234.395 247.321 221.371 244.572 208.235 241.825C206.337 241.423 204.46 241.021 202.583 240.619C198.383 239.725 194.161 238.832 189.961 237.96C184.487 236.799 179.037 235.636 173.652 234.52C172.379 234.251 171.128 233.983 169.876 233.715C167.933 233.313 165.989 232.911 164.068 232.486C160.047 231.638 156.093 230.811 152.228 229.985C147.76 229.068 143.359 228.131 139.024 227.215C123.052 223.841 108.776 220.825 97.6056 218.479C96.399 218.211 95.1935 217.965 94.009 217.72C89.8087 216.826 86.1225 216.044 83.0622 215.397C82.794 215.351 82.5259 215.285 82.28 215.241C76.5162 214.034 73.1203 213.318 72.83 213.252C68.6306 212.403 64.4757 211.979 60.3197 211.979C32.394 211.979 7.28376 231.481 1.31842 259.899C-5.58436 292.515 15.3034 324.596 47.9435 331.432C52.0984 332.326 56.3209 332.75 60.3862 332.75C68.2053 332.75 75.8015 331.209 82.8384 328.394L93.3387 325.825C100.309 355.359 114.897 382.458 135.383 404.508C158.975 429.796 190.251 448.428 226.666 456.135C238.73 458.705 250.905 459.934 262.791 459.934C343.216 459.934 415.576 403.748 432.778 321.781L435.748 307.715C437.747 298.246 431.718 288.956 422.25 286.957Z" fill="#F17041" style="fill:#F17041;fill:color(display-p3 0.9451 0.4392 0.2549);fill-opacity:1;"/>
<path d="M662.515 258.285C661.835 251.216 659.486 245.492 655.104 241.79C651.068 238.084 645.344 236.066 638.278 236.066C612.688 236.066 608.99 258.285 608.99 279.489C608.99 300.696 612.688 322.573 638.278 322.573C652.747 322.573 662.85 310.795 664.195 296.995H727.815C724.785 320.555 713.676 339.068 697.519 351.857C681.701 364.312 660.493 371.047 636.925 371.047C584.415 371.047 542.346 334.693 542.346 279.489C542.346 224.284 584.415 187.596 636.925 187.596C682.708 187.596 721.756 210.146 725.793 258.285H662.515Z" fill="white" style="fill:white;fill-opacity:1;"/>
<path d="M753.578 126.333H820.231V210.822H820.899C832.339 197.356 847.151 187.596 875.424 187.596C906.738 187.596 935.345 206.781 935.345 246.837V366.672H868.697V275.118C868.697 254.917 866.344 240.778 846.816 240.778C835.368 240.778 820.231 246.502 820.231 274.441V366.672H753.578V126.333Z" fill="white" style="fill:white;fill-opacity:1;"/>
<path d="M1077.69 288.242C1069.62 292.282 1060.53 294.638 1051.44 296.66C1036.63 300.024 1028.89 303.726 1028.89 315.508C1028.89 323.584 1037.64 331.664 1049.75 331.664C1064.9 331.664 1076.69 322.573 1077.69 304.402V288.242ZM1141.65 327.628C1141.65 340.752 1142.32 355.563 1149.73 366.672H1081.74C1080.05 361.959 1079.05 354.89 1079.38 350.177H1078.71C1064.57 366.338 1044.04 371.047 1022.5 371.047C988.837 371.047 960.898 354.89 960.898 318.202C960.898 262.998 1025.53 265.016 1059.53 258.619C1068.61 256.939 1077.69 254.245 1077.69 243.139C1077.69 231.353 1066.59 226.979 1055.81 226.979C1035.29 226.979 1031.24 237.415 1030.91 244.819H968.971C969.978 220.248 982.095 205.771 999.266 197.695C1016.09 189.614 1038.32 187.596 1058.85 187.596C1142.32 187.596 1141.65 222.266 1141.65 255.928V327.628Z" fill="white" style="fill:white;fill-opacity:1;"/>
<path d="M1176.5 191.97H1240.46V219.913H1241.13C1251.9 199.04 1266.04 187.6 1290.27 187.6C1297 187.6 1303.4 188.607 1309.79 190.287V249.197C1303.07 246.841 1297 244.822 1283.54 244.822C1257.28 244.822 1243.15 260.306 1243.15 297.667V366.672H1176.5V191.97Z" fill="white" style="fill:white;fill-opacity:1;"/>
<path d="M1433.41 191.968H1469.1V233.034H1433.41V293.963C1433.41 310.119 1437.11 317.188 1453.95 317.188C1458.99 317.188 1464.05 316.854 1469.1 316.177V366.669C1455.63 366.669 1440.48 368.688 1426.35 368.688C1398.06 368.688 1366.76 364.313 1366.76 316.512V233.034H1337.14V191.968H1366.76V138.785H1433.41V191.968Z" fill="white" style="fill:white;fill-opacity:1;"/>
<path d="M1583.52 219.173C1551.21 219.173 1534.71 243.744 1534.71 280.774C1534.71 315.778 1552.55 342.037 1583.52 342.037C1618.53 342.037 1631.66 311.069 1631.66 280.774C1631.66 249.126 1615.16 219.173 1583.52 219.173ZM1497.68 127.276H1536.06V216.144H1536.73C1547.16 199.31 1569.04 188.877 1588.57 188.877C1643.44 188.877 1670.03 230.616 1670.03 281.443C1670.03 328.229 1646.46 372.332 1594.97 372.332C1571.4 372.332 1546.15 366.608 1534.71 343.713H1534.04V367.615H1497.68V127.276Z" fill="white" style="fill:white;fill-opacity:1;"/>
<path d="M1700.26 193.588H1736.28V227.251H1736.96C1741.33 208.738 1764.22 188.875 1787.78 188.875C1796.53 188.875 1798.89 189.548 1802.25 189.883V226.913C1796.87 226.24 1791.15 225.229 1785.76 225.229C1759.51 225.229 1738.64 246.44 1738.64 284.808V367.617H1700.26V193.588Z" fill="white" style="fill:white;fill-opacity:1;"/>
<path d="M1937.42 265.286C1936.08 241.049 1919.58 219.169 1893.66 219.169C1867.07 219.169 1848.89 239.365 1847.89 265.286H1937.42ZM1847.89 290.53C1847.89 317.796 1862.69 342.033 1894.67 342.033C1916.89 342.033 1930.35 332.273 1937.09 313.079H1973.44C1965.02 351.124 1932.71 372.328 1894.67 372.328C1840.15 372.328 1809.51 334.287 1809.51 280.77C1809.51 231.285 1841.83 188.874 1893.66 188.874C1948.53 188.874 1982.19 238.354 1975.8 290.53H1847.89Z" fill="white" style="fill:white;fill-opacity:1;"/>
<path d="M1982.64 193.588H2023.37L2057.37 323.522H2058.05L2090.69 193.588H2129.4L2160.71 323.522H2161.38L2196.73 193.588H2235.77L2181.24 367.617H2141.86L2109.55 238.356H2108.87L2076.89 367.617H2036.5L1982.64 193.588Z" fill="white" style="fill:white;fill-opacity:1;"/>
</svg>
