<svg width="2353" height="609" viewBox="0 0 2353 609" fill="none" xmlns="http://www.w3.org/2000/svg">
<g clip-path="url(#clip0_2702_2660)">
<path d="M374.04 67.8164H350.846C334.459 67.8164 321.223 81.179 321.223 97.5657V301.526L403.791 318.922V97.5657C403.791 81.179 390.427 67.8164 374.04 67.8164Z" fill="#F17041" style="fill:#F17041;fill:color(display-p3 0.9451 0.4392 0.2549);fill-opacity:1;"/>
<path d="M489.382 -0.00390625H466.187C449.8 -0.00390625 436.562 13.3587 436.562 29.7454V325.853L519.13 343.249V29.7454C519.13 13.3587 505.77 -0.00390625 489.382 -0.00390625Z" fill="#F17041" style="fill:#F17041;fill:color(display-p3 0.9451 0.4392 0.2549);fill-opacity:1;"/>
<path d="M258.698 151.895H235.629C219.115 151.895 205.881 165.258 205.881 181.645V277.197L288.447 294.593V181.645C288.447 165.258 275.086 151.895 258.698 151.895Z" fill="#F17041" style="fill:#F17041;fill:color(display-p3 0.9451 0.4392 0.2549);fill-opacity:1;"/>
<path d="M116.047 367.625C116.017 367.713 116.017 367.773 115.988 367.861C112.353 385.266 97.0159 397.175 79.8759 397.175C77.3653 397.175 74.8533 396.879 72.2533 396.437C52.3346 392.151 39.5986 372.618 43.7946 352.702C47.3999 335.297 62.7666 323.387 79.8759 323.387C82.3893 323.387 84.8999 323.565 87.5013 324.126C100.089 326.786 109.841 335.622 114.215 346.791C116.756 353.203 117.524 360.385 116.047 367.625ZM558.532 379.569C526.008 372.703 483.533 363.746 436.82 353.883C436.791 353.883 436.701 353.883 436.643 353.854C435.815 353.677 433.037 353.086 428.545 352.139C427.6 351.933 426.655 351.755 425.679 351.549C424.733 351.342 423.788 351.135 422.813 350.929C414.449 349.185 402.748 346.703 388.681 343.747C387.5 343.482 386.317 343.245 385.136 342.979C373.581 340.557 360.579 337.809 346.66 334.882C345.005 334.527 343.38 334.174 341.725 333.849C338.889 333.227 336.021 332.637 333.127 332.015C330.909 331.543 328.693 331.07 326.448 330.627C310.047 327.141 292.819 323.505 275.443 319.87C272.932 319.339 270.449 318.807 267.967 318.275C262.412 317.093 256.827 315.911 251.271 314.758C244.031 313.222 236.821 311.685 229.699 310.207C228.015 309.853 226.36 309.498 224.704 309.143C222.133 308.611 219.563 308.079 217.021 307.518C211.703 306.395 206.472 305.302 201.36 304.209C195.449 302.997 189.628 301.757 183.895 300.545C162.767 296.082 143.884 292.093 129.108 288.99C127.512 288.635 125.917 288.31 124.351 287.986C118.795 286.803 113.919 285.769 109.871 284.913C109.516 284.853 109.161 284.765 108.836 284.706C101.212 283.11 96.7199 282.163 96.3359 282.075C90.7813 280.953 85.2853 280.391 79.7879 280.391C42.8493 280.391 9.63461 306.189 1.74394 343.778C-7.38673 386.921 20.2426 429.357 63.4173 438.398C68.9133 439.581 74.4986 440.142 79.8759 440.142C90.2186 440.142 100.267 438.103 109.575 434.379L123.464 430.982C132.684 470.047 151.98 505.893 179.079 535.059C210.284 568.51 251.655 593.155 299.823 603.35C315.78 606.749 331.885 608.374 347.607 608.374C453.989 608.374 549.704 534.054 572.457 425.633L576.387 407.026C579.031 394.502 571.056 382.213 558.532 379.569Z" fill="#F17041" style="fill:#F17041;fill:color(display-p3 0.9451 0.4392 0.2549);fill-opacity:1;"/>
<path d="M779.17 286.951C778.489 279.882 776.14 274.158 771.758 270.456C767.722 266.75 761.998 264.732 754.933 264.732C729.343 264.732 725.645 286.951 725.645 308.155C725.645 329.363 729.343 351.239 754.933 351.239C769.402 351.239 779.504 339.461 780.849 325.661H844.469C841.44 349.221 830.33 367.734 814.174 380.523C798.355 392.978 777.148 399.713 753.58 399.713C701.07 399.713 659 363.36 659 308.155C659 252.95 701.07 216.262 753.58 216.262C799.362 216.262 838.411 238.812 842.447 286.951H779.17Z" fill="white" style="fill:white;fill-opacity:1;"/>
<path d="M870.23 154.996H936.883V239.485H937.552C948.992 226.019 963.803 216.259 992.076 216.259C1023.39 216.259 1052 235.445 1052 275.5V395.335H985.349V303.781C985.349 283.58 982.996 269.442 963.468 269.442C952.021 269.442 936.883 275.165 936.883 303.104V395.335H870.23V154.996Z" fill="white" style="fill:white;fill-opacity:1;"/>
<path d="M1194.35 316.908C1186.27 320.948 1177.19 323.304 1168.1 325.326C1153.28 328.69 1145.55 332.392 1145.55 344.174C1145.55 352.25 1154.29 360.33 1166.41 360.33C1181.56 360.33 1193.34 351.239 1194.35 333.068V316.908ZM1258.3 356.294C1258.3 369.418 1258.98 384.229 1266.39 395.338H1198.39C1196.71 390.626 1195.7 383.556 1196.03 378.843H1195.36C1181.22 395.004 1160.7 399.713 1139.15 399.713C1105.49 399.713 1077.55 383.556 1077.55 346.868C1077.55 291.664 1142.18 293.682 1176.18 287.285C1185.27 285.605 1194.35 282.911 1194.35 271.805C1194.35 260.019 1183.25 255.645 1172.47 255.645C1151.94 255.645 1147.89 266.081 1147.56 273.485H1085.62C1086.63 248.914 1098.75 234.437 1115.92 226.361C1132.75 218.28 1154.97 216.262 1175.5 216.262C1258.98 216.262 1258.3 250.932 1258.3 284.594V356.294Z" fill="white" style="fill:white;fill-opacity:1;"/>
<path d="M1293.15 220.636H1357.11V248.579H1357.78C1368.55 227.706 1382.69 216.266 1406.93 216.266C1413.66 216.266 1420.05 217.273 1426.45 218.953V277.863C1419.72 275.507 1413.66 273.489 1400.2 273.489C1373.94 273.489 1359.81 288.972 1359.81 326.333V395.338H1293.15V220.636Z" fill="white" style="fill:white;fill-opacity:1;"/>
<path d="M1550.07 220.64H1585.75V261.706H1550.07V322.634C1550.07 338.791 1553.77 345.86 1570.6 345.86C1575.65 345.86 1580.7 345.526 1585.75 344.849V395.341C1572.28 395.341 1557.13 397.359 1543 397.359C1514.72 397.359 1483.41 392.985 1483.41 345.184V261.706H1453.8V220.64H1483.41V167.457H1550.07V220.64Z" fill="white" style="fill:white;fill-opacity:1;"/>
<path d="M1700.18 247.842C1667.86 247.842 1651.37 272.413 1651.37 309.443C1651.37 344.447 1669.21 370.706 1700.18 370.706C1735.18 370.706 1748.31 339.738 1748.31 309.443C1748.31 277.795 1731.82 247.842 1700.18 247.842ZM1614.34 155.945H1652.71V244.812H1653.39C1663.82 227.979 1685.7 217.546 1705.22 217.546C1760.09 217.546 1786.68 259.285 1786.68 310.112C1786.68 356.898 1763.12 401.001 1711.62 401.001C1688.06 401.001 1662.81 395.277 1651.37 372.382H1650.69V396.284H1614.34V155.945Z" fill="white" style="fill:white;fill-opacity:1;"/>
<path d="M1816.92 222.251H1852.94V255.914H1853.61C1857.98 237.401 1880.88 217.539 1904.44 217.539C1913.19 217.539 1915.55 218.211 1918.91 218.546V255.576C1913.53 254.903 1907.8 253.892 1902.42 253.892C1876.16 253.892 1855.29 275.104 1855.29 313.471V396.28H1816.92V222.251Z" fill="white" style="fill:white;fill-opacity:1;"/>
<path d="M2054.08 293.96C2052.73 269.723 2036.24 247.843 2010.32 247.843C1983.72 247.843 1965.55 268.039 1964.54 293.96H2054.08ZM1964.54 319.204C1964.54 346.47 1979.35 370.707 2011.33 370.707C2033.54 370.707 2047.01 360.947 2053.74 341.753H2090.09C2081.68 379.798 2049.36 401.002 2011.33 401.002C1956.8 401.002 1926.17 362.961 1926.17 309.444C1926.17 259.959 1958.48 217.547 2010.32 217.547C2065.18 217.547 2098.85 267.028 2092.45 319.204H1964.54Z" fill="white" style="fill:white;fill-opacity:1;"/>
<path d="M2099.3 222.254H2140.03L2174.02 352.188H2174.7L2207.35 222.254H2246.06L2277.37 352.188H2278.04L2313.38 222.254H2352.43L2297.9 396.283H2258.51L2226.2 267.022H2225.53L2193.55 396.283H2153.16L2099.3 222.254Z" fill="white" style="fill:white;fill-opacity:1;"/>
</g>
<defs>
<clipPath id="clip0_2702_2660">
<rect width="2353" height="609" fill="white" style="fill:white;fill-opacity:1;"/>
</clipPath>
</defs>
</svg>
