<svg width="500" height="500" viewBox="0 0 500 500" fill="none" xmlns="http://www.w3.org/2000/svg">
<rect width="500" height="500" fill="black" style="fill:black;fill-opacity:1;"/>
<path d="M122 118.533C122 116.933 123.333 115.333 125.2 115.333H148.667C150.267 115.333 151.867 116.666 151.867 118.533V379.066C151.867 380.666 150.533 382.266 148.667 382.266H125.2C123.6 382.266 122 380.933 122 379.066V118.533Z" fill="#F9FF69" style="fill:#F9FF69;fill:color(display-p3 0.9765 1.0000 0.4118);fill-opacity:1;"/>
<path d="M181.199 118.533C181.199 116.933 182.533 115.333 184.399 115.333H207.866C209.466 115.333 211.066 116.666 211.066 118.533V379.066C211.066 380.666 209.733 382.266 207.866 382.266H184.399C182.799 382.266 181.199 380.933 181.199 379.066V118.533Z" fill="#F9FF69" style="fill:#F9FF69;fill:color(display-p3 0.9765 1.0000 0.4118);fill-opacity:1;"/>
<path d="M240.4 118.533C240.4 116.933 241.734 115.333 243.6 115.333H267.067C268.667 115.333 270.267 116.666 270.267 118.533V379.066C270.267 380.666 268.934 382.266 267.067 382.266H243.6C242 382.266 240.4 380.933 240.4 379.066V118.533Z" fill="#F9FF69" style="fill:#F9FF69;fill:color(display-p3 0.9765 1.0000 0.4118);fill-opacity:1;"/>
<path d="M299.6 118.533C299.6 116.933 300.933 115.333 302.8 115.333H326.266C327.866 115.333 329.466 116.666 329.466 118.533V379.066C329.466 380.666 328.133 382.266 326.266 382.266H302.8C301.2 382.266 299.6 380.933 299.6 379.066V118.533Z" fill="#F9FF69" style="fill:#F9FF69;fill:color(display-p3 0.9765 1.0000 0.4118);fill-opacity:1;"/>
<path d="M359.066 222.266C359.066 220.666 360.4 219.066 362.266 219.066H385.733C387.333 219.066 388.933 220.4 388.933 222.266V275.333C388.933 276.933 387.6 278.533 385.733 278.533H362.266C360.666 278.533 359.066 277.2 359.066 275.333V222.266Z" fill="#F9FF69" style="fill:#F9FF69;fill:color(display-p3 0.9765 1.0000 0.4118);fill-opacity:1;"/>
</svg>
