<svg width="2236" height="460" viewBox="0 0 2236 460" fill="none" xmlns="http://www.w3.org/2000/svg">
<path d="M282.774 51.2699H265.238C252.85 51.2699 242.844 61.372 242.844 73.7604V227.954L305.265 241.105V73.7604C305.265 61.372 295.162 51.2699 282.774 51.2699Z" fill="#F17041" style="fill:#F17041;fill:color(display-p3 0.9451 0.4392 0.2549);fill-opacity:1;"/>
<path d="M369.972 -0.00343288H352.437C340.048 -0.00343288 330.041 10.0987 330.041 22.4871V246.345L392.462 259.496V22.4871C392.462 10.0987 382.361 -0.00343288 369.972 -0.00343288Z" fill="#F17041" style="fill:#F17041;fill:color(display-p3 0.9451 0.4392 0.2549);fill-opacity:1;"/>
<path d="M195.576 114.832H178.136C165.652 114.832 155.646 124.934 155.646 137.322V209.56L218.067 222.711V137.322C218.067 124.934 207.966 114.832 195.576 114.832Z" fill="#F17041" style="fill:#F17041;fill:color(display-p3 0.9451 0.4392 0.2549);fill-opacity:1;"/>
<path d="M87.7312 277.923C87.709 277.99 87.709 278.035 87.6869 278.102C84.9391 291.26 73.344 300.263 60.3862 300.263C58.4881 300.263 56.5891 300.04 54.6235 299.705C39.565 296.465 29.9365 281.698 33.1087 266.642C35.8344 253.483 47.4515 244.48 60.3862 244.48C62.2863 244.48 64.1843 244.614 66.151 245.038C75.6675 247.049 83.04 253.729 86.3462 262.173C88.2675 267.021 88.8481 272.45 87.7312 277.923ZM422.25 286.953C397.662 281.763 365.551 274.991 330.236 267.535C330.214 267.535 330.146 267.535 330.102 267.513C329.476 267.379 327.376 266.932 323.98 266.216C323.266 266.06 322.551 265.926 321.813 265.77C321.098 265.613 320.384 265.457 319.647 265.301C313.324 263.983 304.477 262.107 293.843 259.872C292.95 259.671 292.056 259.492 291.163 259.291C282.427 257.46 272.597 255.382 262.075 253.17C260.824 252.902 259.595 252.634 258.344 252.389C256.2 251.919 254.032 251.472 251.844 251.003C250.167 250.646 248.492 250.288 246.795 249.953C234.395 247.317 221.371 244.568 208.235 241.821C206.337 241.419 204.46 241.017 202.583 240.615C198.383 239.721 194.161 238.828 189.961 237.956C184.487 236.795 179.037 235.633 173.652 234.516C172.379 234.248 171.128 233.979 169.876 233.711C167.933 233.309 165.989 232.907 164.068 232.483C160.047 231.634 156.093 230.807 152.228 229.981C147.76 229.064 143.359 228.127 139.024 227.211C123.052 223.837 108.776 220.821 97.6056 218.475C96.399 218.207 95.1934 217.961 94.009 217.716C89.8087 216.822 86.1225 216.04 83.0622 215.393C82.794 215.348 82.5259 215.281 82.28 215.237C76.5162 214.03 73.1203 213.314 72.83 213.248C68.6306 212.399 64.4757 211.975 60.3197 211.975C32.394 211.975 7.28376 231.478 1.31842 259.895C-5.58436 292.511 15.3034 324.593 47.9435 331.428C52.0984 332.322 56.3209 332.746 60.3862 332.746C68.2053 332.746 75.8015 331.205 82.8384 328.39L93.3387 325.821C100.309 355.355 114.897 382.454 135.383 404.504C158.975 429.793 190.251 448.424 226.666 456.132C238.73 458.701 250.905 459.93 262.791 459.93C343.216 459.93 415.576 403.744 432.778 321.777L435.748 307.711C437.747 298.242 431.718 288.952 422.25 286.953" fill="#F17041" style="fill:#F17041;fill:color(display-p3 0.9451 0.4392 0.2549);fill-opacity:1;"/>
<path d="M662.515 258.281C661.835 251.212 659.486 245.488 655.104 241.786C651.068 238.08 645.344 236.062 638.278 236.062C612.688 236.062 608.99 258.281 608.99 279.485C608.99 300.693 612.688 322.569 638.278 322.569C652.747 322.569 662.85 310.791 664.195 296.991H727.815C724.785 320.551 713.676 339.064 697.519 351.853C681.701 364.308 660.493 371.043 636.925 371.043C584.415 371.043 542.346 334.69 542.346 279.485C542.346 224.28 584.415 187.592 636.925 187.592C682.708 187.592 721.756 210.142 725.793 258.281H662.515Z" fill="white" style="fill:white;fill-opacity:1;"/>
<path d="M753.578 126.329H820.231V210.818H820.899C832.339 197.352 847.151 187.592 875.424 187.592C906.738 187.592 935.345 206.778 935.345 246.833V366.668H868.697V275.114C868.697 254.913 866.344 240.775 846.816 240.775C835.368 240.775 820.231 246.498 820.231 274.437V366.668H753.578V126.329Z" fill="white" style="fill:white;fill-opacity:1;"/>
<path d="M1077.69 288.238C1069.62 292.278 1060.53 294.634 1051.44 296.656C1036.63 300.02 1028.89 303.722 1028.89 315.504C1028.89 323.58 1037.64 331.66 1049.75 331.66C1064.9 331.66 1076.69 322.569 1077.69 304.398V288.238ZM1141.65 327.624C1141.65 340.748 1142.32 355.559 1149.73 366.668H1081.74C1080.05 361.956 1079.05 354.886 1079.38 350.173H1078.71C1064.57 366.334 1044.04 371.043 1022.5 371.043C988.837 371.043 960.898 354.886 960.898 318.199C960.898 262.994 1025.53 265.012 1059.53 258.615C1068.61 256.936 1077.69 254.241 1077.69 243.135C1077.69 231.349 1066.59 226.975 1055.81 226.975C1035.29 226.975 1031.24 237.411 1030.91 244.815H968.971C969.978 220.244 982.095 205.767 999.266 197.691C1016.09 189.61 1038.32 187.592 1058.85 187.592C1142.32 187.592 1141.65 222.262 1141.65 255.925V327.624Z" fill="white" style="fill:white;fill-opacity:1;"/>
<path d="M1176.5 191.966H1240.46V219.909H1241.13C1251.9 199.036 1266.04 187.596 1290.27 187.596C1297 187.596 1303.4 188.603 1309.79 190.283V249.193C1303.07 246.837 1297 244.819 1283.54 244.819C1257.28 244.819 1243.15 260.302 1243.15 297.663V366.668H1176.5V191.966Z" fill="white" style="fill:white;fill-opacity:1;"/>
<path d="M1433.41 191.964H1469.1V233.03H1433.41V293.959C1433.41 310.115 1437.11 317.185 1453.95 317.185C1458.99 317.185 1464.05 316.85 1469.1 316.174V366.665C1455.63 366.665 1440.48 368.684 1426.35 368.684C1398.06 368.684 1366.76 364.309 1366.76 316.508V233.03H1337.14V191.964H1366.76V138.781H1433.41V191.964Z" fill="white" style="fill:white;fill-opacity:1;"/>
<path d="M1583.52 219.169C1551.21 219.169 1534.71 243.74 1534.71 280.77C1534.71 315.774 1552.55 342.033 1583.52 342.033C1618.53 342.033 1631.66 311.065 1631.66 280.77C1631.66 249.122 1615.16 219.169 1583.52 219.169ZM1497.68 127.272H1536.06V216.14H1536.73C1547.16 199.306 1569.04 188.874 1588.57 188.874C1643.44 188.874 1670.03 230.613 1670.03 281.439C1670.03 328.225 1646.46 372.328 1594.97 372.328C1571.4 372.328 1546.15 366.604 1534.71 343.709H1534.04V367.611H1497.68V127.272Z" fill="white" style="fill:white;fill-opacity:1;"/>
<path d="M1700.26 193.584H1736.28V227.247H1736.96C1741.33 208.734 1764.22 188.872 1787.78 188.872C1796.53 188.872 1798.89 189.544 1802.25 189.879V226.909C1796.87 226.236 1791.15 225.225 1785.76 225.225C1759.51 225.225 1738.64 246.437 1738.64 284.804V367.613H1700.26V193.584Z" fill="white" style="fill:white;fill-opacity:1;"/>
<path d="M1937.42 265.282C1936.08 241.045 1919.58 219.165 1893.66 219.165C1867.07 219.165 1848.89 239.362 1847.89 265.282H1937.42ZM1847.89 290.526C1847.89 317.792 1862.69 342.029 1894.67 342.029C1916.89 342.029 1930.35 332.269 1937.09 313.076H1973.44C1965.02 351.12 1932.71 372.324 1894.67 372.324C1840.15 372.324 1809.51 334.283 1809.51 280.766C1809.51 231.281 1841.83 188.87 1893.66 188.87C1948.53 188.87 1982.19 238.351 1975.8 290.526H1847.89Z" fill="white" style="fill:white;fill-opacity:1;"/>
<path d="M1982.64 193.584H2023.37L2057.37 323.518H2058.05L2090.69 193.584H2129.4L2160.71 323.518H2161.38L2196.73 193.584H2235.77L2181.24 367.613H2141.86L2109.55 238.352H2108.87L2076.89 367.613H2036.5L1982.64 193.584Z" fill="white" style="fill:white;fill-opacity:1;"/>
</svg>
