<svg width="2237" height="461" viewBox="0 0 2237 461" fill="none" xmlns="http://www.w3.org/2000/svg">
<path d="M283.428 51.9417H265.893C253.504 51.9417 243.498 62.0439 243.498 74.4322V228.626L305.919 241.777V74.4322C305.919 62.0439 295.816 51.9417 283.428 51.9417Z" fill="#F17041" style="fill:#F17041;fill:color(display-p3 0.9451 0.4392 0.2549);fill-opacity:1;"/>
<path d="M370.626 0.668442H353.091C340.703 0.668442 330.695 10.7706 330.695 23.1589V247.017L393.117 260.168V23.1589C393.117 10.7706 383.016 0.668442 370.626 0.668442Z" fill="#F17041" style="fill:#F17041;fill:color(display-p3 0.9451 0.4392 0.2549);fill-opacity:1;"/>
<path d="M196.231 115.504H178.79C166.306 115.504 156.301 125.606 156.301 137.994V210.231L218.721 223.383V137.994C218.721 125.606 208.62 115.504 196.231 115.504Z" fill="#F17041" style="fill:#F17041;fill:color(display-p3 0.9451 0.4392 0.2549);fill-opacity:1;"/>
<path d="M88.3855 278.595C88.3633 278.662 88.3633 278.707 88.3412 278.773C85.5934 291.932 73.9983 300.935 61.0405 300.935C59.1424 300.935 57.2434 300.712 55.2778 300.377C40.2193 297.137 30.5908 282.37 33.763 267.314C36.4886 254.155 48.1058 245.152 61.0405 245.152C62.9406 245.152 64.8386 245.286 66.8053 245.71C76.3218 247.721 83.6943 254.401 87.0005 262.845C88.9218 267.693 89.5024 273.122 88.3855 278.595ZM422.904 287.625C398.316 282.435 366.205 275.663 330.89 268.207C330.868 268.207 330.8 268.207 330.756 268.184C330.13 268.05 328.03 267.604 324.634 266.888C323.92 266.732 323.205 266.598 322.467 266.442C321.753 266.285 321.038 266.129 320.301 265.973C313.978 264.654 305.132 262.779 294.497 260.544C293.604 260.343 292.71 260.164 291.817 259.963C283.082 258.132 273.252 256.054 262.729 253.842C261.478 253.573 260.249 253.306 258.999 253.06C256.855 252.591 254.686 252.144 252.498 251.674C250.822 251.318 249.146 250.96 247.449 250.625C235.05 247.989 222.025 245.24 208.889 242.493C206.991 242.091 205.114 241.689 203.237 241.287C199.038 240.393 194.815 239.5 190.615 238.628C185.141 237.467 179.691 236.304 174.306 235.188C173.033 234.919 171.782 234.651 170.53 234.383C168.587 233.981 166.644 233.579 164.722 233.154C160.701 232.306 156.747 231.479 152.882 230.653C148.414 229.736 144.013 228.799 139.679 227.883C123.706 224.509 109.431 221.493 98.2599 219.147C97.0533 218.879 95.8477 218.633 94.6633 218.388C90.463 217.494 86.7768 216.712 83.7165 216.065C83.4483 216.019 83.1802 215.953 82.9343 215.909C77.1705 214.702 73.7746 213.986 73.4843 213.92C69.2849 213.071 65.13 212.647 60.974 212.647C33.0483 212.647 7.93806 232.149 1.97272 260.567C-4.93007 293.183 15.9577 325.264 48.5977 332.1C52.7527 332.994 56.9752 333.418 61.0405 333.418C68.8596 333.418 76.4558 331.877 83.4927 329.062L93.993 326.493C100.963 356.027 115.551 383.126 136.038 405.176C159.629 430.464 190.905 449.096 227.32 456.803C239.384 459.373 251.56 460.602 263.445 460.602C343.87 460.602 416.23 404.416 433.432 322.449L436.403 308.382C438.401 298.914 432.373 289.624 422.904 287.625" fill="#F17041" style="fill:#F17041;fill:color(display-p3 0.9451 0.4392 0.2549);fill-opacity:1;"/>
<path d="M663.17 258.953C662.489 251.884 660.14 246.16 655.758 242.458C651.722 238.752 645.998 236.734 638.933 236.734C613.343 236.734 609.645 258.953 609.645 280.157C609.645 301.364 613.343 323.241 638.933 323.241C653.402 323.241 663.504 311.463 664.849 297.663H728.469C725.44 321.223 714.33 339.736 698.174 352.525C682.355 364.98 661.148 371.715 637.58 371.715C585.07 371.715 543 335.361 543 280.157C543 224.952 585.07 188.264 637.58 188.264C683.362 188.264 722.411 210.813 726.447 258.953H663.17Z" fill="#18181B" style="fill:#18181B;fill:color(display-p3 0.0941 0.0941 0.1059);fill-opacity:1;"/>
<path d="M754.232 127.001H820.885V211.49H821.554C832.994 198.024 847.805 188.264 876.078 188.264C907.392 188.264 935.999 207.449 935.999 247.505V367.34H869.351V275.786C869.351 255.585 866.998 241.446 847.47 241.446C836.023 241.446 820.885 247.17 820.885 275.109V367.34H754.232V127.001Z" fill="#18181B" style="fill:#18181B;fill:color(display-p3 0.0941 0.0941 0.1059);fill-opacity:1;"/>
<path d="M1078.35 288.91C1070.27 292.95 1061.19 295.306 1052.1 297.328C1037.28 300.692 1029.55 304.394 1029.55 316.176C1029.55 324.252 1038.29 332.332 1050.41 332.332C1065.56 332.332 1077.34 323.241 1078.35 305.07V288.91ZM1142.3 328.296C1142.3 341.42 1142.98 356.231 1150.39 367.34H1082.39C1080.71 362.627 1079.7 355.558 1080.03 350.845H1079.36C1065.22 367.006 1044.7 371.715 1023.15 371.715C989.491 371.715 961.553 355.558 961.553 318.87C961.553 263.666 1026.18 265.684 1060.18 259.287C1069.27 257.607 1078.35 254.913 1078.35 243.807C1078.35 232.021 1067.25 227.647 1056.47 227.647C1035.94 227.647 1031.9 238.083 1031.56 245.487H969.625C970.632 220.916 982.749 206.439 999.92 198.363C1016.75 190.282 1038.97 188.264 1059.5 188.264C1142.98 188.264 1142.3 222.934 1142.3 256.596V328.296Z" fill="#18181B" style="fill:#18181B;fill:color(display-p3 0.0941 0.0941 0.1059);fill-opacity:1;"/>
<path d="M1177.15 192.638H1241.11V220.581H1241.78C1252.55 199.708 1266.69 188.268 1290.93 188.268C1297.66 188.268 1304.05 189.275 1310.45 190.955V249.865C1303.72 247.509 1297.66 245.49 1284.2 245.49C1257.94 245.49 1243.81 260.974 1243.81 298.335V367.34H1177.15V192.638Z" fill="#18181B" style="fill:#18181B;fill:color(display-p3 0.0941 0.0941 0.1059);fill-opacity:1;"/>
<path d="M1434.07 192.636H1469.75V233.702H1434.07V294.631C1434.07 310.787 1437.77 317.856 1454.6 317.856C1459.64 317.856 1464.7 317.522 1469.75 316.845V367.337C1456.28 367.337 1441.13 369.355 1427 369.355C1398.72 369.355 1367.41 364.981 1367.41 317.18V233.702H1337.8V192.636H1367.41V139.453H1434.07V192.636Z" fill="#18181B" style="fill:#18181B;fill:color(display-p3 0.0941 0.0941 0.1059);fill-opacity:1;"/>
<path d="M1584.18 219.841C1551.86 219.841 1535.37 244.412 1535.37 281.442C1535.37 316.446 1553.21 342.705 1584.18 342.705C1619.18 342.705 1632.31 311.737 1632.31 281.442C1632.31 249.794 1615.82 219.841 1584.18 219.841ZM1498.34 127.944H1536.72V216.811H1537.39C1547.82 199.978 1569.7 189.545 1589.23 189.545C1644.1 189.545 1670.69 231.284 1670.69 282.111C1670.69 328.897 1647.12 373 1595.62 373C1572.06 373 1546.81 367.276 1535.37 344.381H1534.69V368.283H1498.34V127.944Z" fill="#18181B" style="fill:#18181B;fill:color(display-p3 0.0941 0.0941 0.1059);fill-opacity:1;"/>
<path d="M1700.92 194.256H1736.94V227.919H1737.61C1741.98 209.406 1764.88 189.543 1788.44 189.543C1797.19 189.543 1799.55 190.216 1802.91 190.551V227.581C1797.53 226.908 1791.8 225.897 1786.42 225.897C1760.16 225.897 1739.29 247.108 1739.29 285.476V368.285H1700.92V194.256Z" fill="#18181B" style="fill:#18181B;fill:color(display-p3 0.0941 0.0941 0.1059);fill-opacity:1;"/>
<path d="M1938.08 265.954C1936.73 241.717 1920.24 219.837 1894.32 219.837C1867.72 219.837 1849.55 240.033 1848.54 265.954H1938.08ZM1848.54 291.198C1848.54 318.464 1863.35 342.701 1895.33 342.701C1917.54 342.701 1931.01 332.941 1937.74 313.747H1974.09C1965.68 351.792 1933.36 372.996 1895.33 372.996C1840.8 372.996 1810.17 334.955 1810.17 281.438C1810.17 231.953 1842.48 189.542 1894.32 189.542C1949.18 189.542 1982.85 239.022 1976.45 291.198H1848.54Z" fill="#18181B" style="fill:#18181B;fill:color(display-p3 0.0941 0.0941 0.1059);fill-opacity:1;"/>
<path d="M1983.3 194.256H2024.03L2058.03 324.19H2058.7L2091.35 194.256H2130.06L2161.37 324.19H2162.04L2197.38 194.256H2236.43L2181.9 368.285H2142.51L2110.2 239.024H2109.53L2077.55 368.285H2037.16L1983.3 194.256Z" fill="#18181B" style="fill:#18181B;fill:color(display-p3 0.0941 0.0941 0.1059);fill-opacity:1;"/>
</svg>
