<svg enable-background="new 0 0 500 500" height="500" viewBox="0 0 500 500" width="500" xmlns="http://www.w3.org/2000/svg"><g clip-rule="evenodd" fill-rule="evenodd"><path d="m143.333 27.5c53.271-29.859 155.062-29.859 208.333 0 2.481 2.24 6.216 3.228 9.166 5 5.852 2.76 10.666 6.557 16.667 9.167 2.365 2.913 6.237 4.318 9.167 6.667 9.876 6.513 18.138 14.64 27.5 21.667 5.948 5.996 11.024 12.865 17.5 18.333 3.57 6.152 8.677 10.767 12.5 16.667 3.452 4.604 5.988 10.122 10 14.167 1.555 4.834 4.6 8.178 6.666 12.5 2.322 4.067 3.879 8.899 6.667 12.5 10.551 24.727 19.178 51.377 21.667 84.167.522 2.533-1.067 7.178.833 8.333v19.167c-1.9 1.155-.311 5.801-.833 8.334-2.489 32.789-11.116 59.439-21.667 84.166-2.788 3.602-4.345 8.434-6.667 12.5-2.066 4.322-5.112 7.666-6.666 12.5-4.012 4.045-6.548 9.563-10 14.167-3.823 5.899-8.93 10.515-12.5 16.667-6.476 5.469-11.552 12.337-17.5 18.333-9.362 7.026-17.624 15.154-27.5 21.667-2.93 2.349-6.802 3.754-9.167 6.666-6.001 2.61-10.815 6.407-16.667 9.167-2.95 1.772-6.685 2.76-9.166 5-53.271 29.859-155.062 29.859-208.333 0-2.482-2.24-6.217-3.228-9.167-5-5.851-2.76-10.666-6.557-16.667-9.167-2.365-2.912-6.237-4.317-9.167-6.666-9.876-6.513-18.138-14.641-27.5-21.667-5.949-5.996-11.024-12.864-17.5-18.333-3.57-6.152-8.677-10.768-12.5-16.667-3.452-4.604-5.989-10.122-10-14.167-1.555-4.834-4.6-8.178-6.667-12.5-2.322-4.066-3.879-8.898-6.667-12.5-10.551-24.727-19.178-51.377-21.667-84.166-.52-2.535 1.069-7.181-.831-8.336 0-6.389 0-12.777 0-19.167 1.9-1.155.311-5.8.833-8.333 2.488-32.79 11.116-59.44 21.667-84.167 2.788-3.601 4.345-8.433 6.667-12.5 2.067-4.322 5.112-7.666 6.667-12.5 4.011-4.044 6.548-9.563 10-14.167 3.823-5.899 8.93-10.515 12.5-16.667 6.476-5.469 11.551-12.338 17.5-18.333 9.362-7.026 17.624-15.154 27.5-21.667 2.929-2.349 6.801-3.754 9.167-6.667 6.001-2.61 10.815-6.407 16.667-9.167 2.949-1.77 6.684-2.758 9.165-4.998zm90-15.833c-46.993 2.729-81.745 17.7-112.5 36.667-3.25 2.027-7.015 3.541-9.167 6.667-5.671 2.384-9.458 6.652-14.167 10-4.313 3.742-9.129 6.981-12.5 11.667-10.967 8.755-19.643 19.802-27.5 31.667-4.26 3.795-6.846 9.265-10 14.167-2.327 4.062-5.302 7.476-6.667 12.5-3.213 3.176-4.84 7.938-6.667 12.5-11.144 24.134-19.872 50.684-21.667 84.167-1.9 1.156-.311 5.801-.833 8.333v12.5c.523 2.533-1.067 7.178.833 8.333 1.794 33.483 10.522 60.033 21.667 84.167 1.827 4.562 3.454 9.324 6.667 12.5 1.365 5.024 4.34 8.438 6.667 12.5 3.154 4.901 5.74 10.371 10 14.167 7.857 11.864 16.533 22.911 27.5 31.666 3.371 4.686 8.187 7.925 12.5 11.667 4.708 3.348 8.495 7.616 14.167 10 2.152 3.126 5.917 4.639 9.167 6.667 30.755 18.966 65.507 33.937 112.5 36.666 7.507 1.388 20.826 1.388 28.333 0 46.992-2.729 81.744-17.7 112.5-36.666 3.25-2.028 7.015-3.541 9.166-6.667 5.672-2.384 9.459-6.652 14.167-10 4.313-3.742 9.13-6.981 12.5-11.667 10.967-8.755 19.643-19.802 27.5-31.666 4.26-3.796 6.846-9.266 10-14.167 2.326-4.062 5.302-7.476 6.667-12.5 3.213-3.176 4.84-7.938 6.666-12.5 11.145-24.134 19.872-50.684 21.667-84.167 1.9-1.155.311-5.8.833-8.333 0-4.167 0-8.333 0-12.5-.522-2.533 1.067-7.178-.833-8.333-1.795-33.483-10.522-60.033-21.667-84.167-1.826-4.562-3.453-9.324-6.666-12.5-1.365-5.024-4.341-8.438-6.667-12.5-3.154-4.901-5.74-10.371-10-14.167-7.857-11.865-16.533-22.912-27.5-31.667-3.37-4.685-8.187-7.924-12.5-11.667-4.708-3.348-8.495-7.616-14.167-10-2.151-3.126-5.916-4.639-9.166-6.667-30.756-18.966-65.508-33.938-112.5-36.667-7.507-1.388-20.825-1.388-28.333 0z" fill="#577fa2"/><path d="m195 198.333c-11.748-17.665-24.085-33.172-24.167-61.667-.159-55.431 25.548-111.403 79.167-119.166 1.155 1.9 5.801.311 8.333.833 46.253 3.469 81.039 18.406 112.5 36.667 2.366 2.913 6.238 4.318 9.167 6.667 2.358 1.253 3.55 3.672 6.667 4.167 10.825 9.452 21.684 18.872 31.666 29.167 3.57 6.152 8.678 10.768 12.5 16.667 3.452 4.604 5.989 10.123 10 14.167 1.555 4.834 4.601 8.178 6.667 12.5 2.322 4.067 3.879 8.899 6.667 12.5 27.905 50.355 27.904 140.478 0 190.833-2.788 3.601-4.345 8.433-6.667 12.5-2.066 4.321-5.112 7.665-6.667 12.5-4.011 4.044-6.548 9.562-10 14.166-3.822 5.899-8.93 10.515-12.5 16.667-9.982 10.295-20.841 19.715-31.666 29.167-3.117.494-4.309 2.913-6.667 4.166-2.929 2.349-6.801 3.755-9.167 6.667-29.123 16.988-61.327 30.894-102.5 35.833 38.923-17.188 59.736-52.484 67.5-100.833 1.913-1.699.302-6.921.834-10 1.054-36.609-7.917-63.194-25-81.667-3.263-3.959-6.874-7.57-10.834-10.833-28.366-24.133-65.939-39.061-95.833-61.667-2.985-3.683-6.318-7.016-10-10.001zm140.833-87.5c-16.315-13.128-31.069-27.819-60-28.333-8.295-10.112-41.803-23.314-43.333-2.5-.913 12.426 12.965 20.401 17.5 30 7.742 16.387 9.147 34.231 19.167 41.667-11.013 16.57-7.239 72.123 14.166 70 9.989-.99 6.573-14.287 10.834-22.5 4.552 13.226 12.939 22.616 23.333 30 2.941 3.459 7.777 9.43 11.667 9.167-3.553-2.281-5.614-6.053-9.167-8.333-11.024-14.532-19.333-31.778-27.5-49.167-7.679 7.043-9.164 20.28-11.667 32.5-7.242-4.702-9.435-14.454-10.833-25 0-4.445 0-8.889 0-13.333-1.14-9.468 7.812-16.365 5.833-25.833-.707-3.387-5.771-7.212-7.5-10-5.487-8.852-7.239-21.078-12.5-31.667-5.459-10.991-15.679-18.045-15.833-29.168 12.356-3.902 23.908 6.357 31.667 12.5 23.98-.44 37.421 9.303 50 19.167 21.38 16.765 30.355 34.77 42.5 60.833 4.921 10.562 10.24 28.462 18.333 34.167 7.787 5.489 17.847 6.034 25.833 10.833 7.812 4.694 15.227 8.053 21.667 15.833-14.357-.746-25.604 1.618-34.167 6.667 3.577 11.266 13.153 17.836 23.334 23.333 10.121 5.464 20.352 11.353 28.333 16.666-8.169-16.831-27.062-22.938-38.333-36.667 10.377-1.845 20.783-3.661 30.833-5.833-10.941-18.781-30.111-29.333-51.667-37.5-15.411-25.7-23.169-59.053-44.166-79.167-2.429-3.125-5.207-5.903-8.334-8.332zm-60-5.833c1.797 5.147 6.396 7.493 7.5 13.333 8.359-2.893 2.64-16.425-7.5-13.333z" fill="#ffa230"/><path d="m250 17.5c2.533.522 7.178-1.067 8.333.833-2.532-.522-7.178 1.067-8.333-.833z" fill="#ffce92"/><path d="m150 40.833c20.126-8.485 40.903-16.32 65.833-20 .69 2.419-5.282 3.988-9.167 6.667-25.394 17.508-42.841 49.838-46.667 90-1.928 3.072-.291 9.709-.833 14.167.494 89.783 78.612 101.945 129.167 141.667 2.985 3.682 6.318 7.016 10 10 11.372 15.754 24.779 34.42 25.834 62.5 1.267 33.74-8.644 73.146-25.834 91.667-3.126 2.429-5.904 5.207-8.333 8.333-12.937 13.674-28.05 24.848-50 27.5-31.196 3.77-66.085-13.42-90-21.666-2.482-2.24-6.217-3.229-9.167-5-5.852-2.76-10.666-6.557-16.667-9.167-2.365-2.912-6.237-4.318-9.167-6.667-9.876-6.513-18.138-14.64-27.5-21.666-3.332-4.169-6.47-8.53-10.833-11.667-3.57-6.152-8.677-10.768-12.5-16.667-3.452-4.604-5.989-10.122-10-14.166-1.554-4.835-4.6-8.179-6.667-12.5-2.322-4.067-3.879-8.899-6.667-12.5-10.551-24.728-19.178-51.378-21.667-84.167-.522-2.533 1.067-7.178-.833-8.333 0-1.944 0-3.889 0-5.833 1.9-1.156.311-5.801.833-8.333 2.489-32.789 11.116-59.439 21.667-84.167 2.788-3.601 4.344-8.433 6.667-12.5 2.067-4.322 5.112-7.666 6.667-12.5 4.011-4.044 6.548-9.563 10-14.167 3.823-5.899 8.93-10.515 12.5-16.667 4.363-3.137 7.502-7.499 10.833-11.667 9.362-7.027 17.624-15.154 27.5-21.667 2.929-2.349 6.801-3.754 9.167-6.667 6.001-2.61 10.815-6.407 16.667-9.167 2.95-1.772 6.685-2.759 9.167-5zm78.333 275c1.14 9.468-7.812 16.365-5.833 25.834.716 3.427 5.758 7.189 7.5 10 5.488 8.852 7.24 21.077 12.5 31.666 5.461 10.994 15.77 18.005 15.833 29.167-12.356 3.902-23.908-6.356-31.667-12.5-23.978.497-37.532-9.391-50-19.167-21.347-16.738-30.69-34.893-42.5-60.833-4.828-10.604-10.345-28.536-18.333-34.167-7.993-5.634-18.801-5.15-26.667-10-8.068-4.974-13.865-9.774-20.833-16.666 14.404.793 25.43-1.792 34.167-6.667-4.625-17.516-23.775-21.635-37.5-30-5.438-3.314-8.541-8.993-14.167-10 8.271 16.729 27.085 22.914 38.333 36.667-10.216 2.005-20.876 3.566-30.833 5.833 10.994 18.728 30.164 29.28 51.667 37.5 15.444 25.667 23.164 59.059 44.167 79.167 2.429 3.126 5.207 5.904 8.333 8.333 16.316 13.129 31.07 27.819 60 28.333 8.376 10.102 41.746 23.252 43.333 2.5.941-12.296-13.004-20.483-17.5-30-7.736-16.375-9.206-34.224-19.167-41.666 10.969-16.403 7.17-72.306-14.167-70-9.947 1.074-6.482 14.347-10.833 22.5-4.464-12.758-12.285-22.159-22.5-29.167-3.272-3.682-8.227-10.093-12.5-10 3.829 2.561 6.171 6.606 10 9.167 9.37 14.797 19.518 28.815 25 47.5 10.741-4.26 9.969-20.031 13.333-31.667 7.328 4.339 9.063 14.27 10.833 24.167.001 4.722.001 9.444.001 14.166zm-5.833 70c-1.677-5.267-6.565-7.323-7.5-13.333-8.159 3.094-2.749 16.316 7.5 13.333z" fill="#577fa2"/><path d="m160 117.5c-.543 4.457 1.094 11.094-.833 14.167.542-4.458-1.095-11.095.833-14.167z" fill="#adc0d1"/><path d="m270 175v13.333c-1.385-2.529-1.385-10.804 0-13.333z" fill="#ffce92"/><path d="m5 236.667c.522-2.533-1.067-7.178.833-8.333-.522 2.532 1.067 7.177-.833 8.333z" fill="#adc0d1"/><path d="m489.167 228.333c1.899 1.155.311 5.8.833 8.333-1.9-1.155-.311-5.8-.833-8.333z" fill="#adc0d1"/><path d="m12.5 231.667v8.333c-.278 0-.556 0-.833 0 .522-2.533-1.067-7.178.833-8.333z" fill="#adc0d1"/><path d="m482.5 231.667c1.9 1.156.311 5.801.833 8.333-.277 0-.556 0-.833 0 0-2.778 0-5.556 0-8.333z" fill="#adc0d1"/><path d="m18.333 243.333c.522-2.533-1.067-7.178.833-8.333-.522 2.533 1.067 7.178-.833 8.333z" fill="#adc0d1"/><path d="m11.667 240h.833v12.5c-.278 0-.556 0-.833 0 0-4.167 0-8.333 0-12.5z" fill="#fefefe"/><path d="m482.5 240h.833v12.5c-.277 0-.556 0-.833 0 0-4.167 0-8.333 0-12.5z" fill="#fefefe"/><path d="m18.333 249.167c1.9 1.156.311 5.8.833 8.333-1.899-1.155-.31-5.801-.833-8.333z" fill="#adc0d1"/><path d="m11.667 252.5h.833v8.333c-1.9-1.155-.311-5.8-.833-8.333z" fill="#adc0d1"/><path d="m482.5 252.5h.833c-.522 2.533 1.067 7.178-.833 8.333 0-2.777 0-5.556 0-8.333z" fill="#adc0d1"/><path d="m5 255.833c1.9 1.155.311 5.801.833 8.334-1.9-1.155-.311-5.801-.833-8.334z" fill="#adc0d1"/><path d="m490 255.833c-.522 2.533 1.066 7.179-.833 8.334.522-2.533-1.067-7.179.833-8.334z" fill="#adc0d1"/><path d="m228.333 301.667c1.385 2.804 1.385 11.362 0 14.166 0-4.722 0-9.444 0-14.166z" fill="#adc0d1"/><path d="m335.833 372.5c.532-3.079-1.079-8.302.834-10-.532 3.079 1.079 8.301-.834 10z" fill="#ffce92"/><g fill="#adc0d1"><path d="m134.167 32.5c2.087-2.635 5.696-3.749 9.167-5-2.482 2.24-6.217 3.228-9.167 5z"/><path d="m108.333 48.333c2.152-3.126 5.917-4.639 9.167-6.667-2.365 2.913-6.237 4.319-9.167 6.667z"/><path d="m63.333 88.333c5.727-6.217 10.863-13.025 17.5-18.333-5.948 5.996-11.024 12.865-17.5 18.333z"/><path d="m40.833 119.167c3.154-4.901 5.74-10.371 10-14.167-3.452 4.604-5.988 10.122-10 14.167z"/><path d="m27.5 144.167c1.827-4.562 3.454-9.324 6.667-12.5-2.322 4.066-3.879 8.898-6.667 12.5z"/><path d="m27.5 348.333c2.788 3.602 4.345 8.434 6.667 12.5-3.213-3.176-4.84-7.937-6.667-12.5z"/><path d="m50.833 387.5c-4.26-3.796-6.846-9.266-10-14.167 4.012 4.045 6.548 9.563 10 14.167z"/><path d="m80.833 422.5c-6.637-5.308-11.773-12.115-17.5-18.333 6.476 5.469 11.552 12.337 17.5 18.333z"/><path d="m117.5 450.833c-3.25-2.027-7.015-3.54-9.167-6.666 2.93 2.349 6.802 3.754 9.167 6.666z"/><path d="m143.333 465c-3.471-1.251-7.08-2.364-9.167-5 2.951 1.772 6.686 2.76 9.167 5z"/><path d="m351.667 465c2.481-2.24 6.216-3.228 9.166-5-2.087 2.636-5.695 3.749-9.166 5z"/><path d="m377.5 450.833c2.365-2.912 6.237-4.317 9.167-6.666-2.152 3.126-5.917 4.639-9.167 6.666z"/><path d="m414.167 422.5c5.948-5.996 11.024-12.864 17.5-18.333-5.727 6.218-10.863 13.025-17.5 18.333z"/><path d="m454.167 373.333c-3.154 4.901-5.74 10.371-10 14.167 3.452-4.604 5.988-10.122 10-14.167z"/><path d="m467.5 348.333c-1.827 4.562-3.453 9.324-6.667 12.5 2.322-4.066 3.879-8.898 6.667-12.5z"/><path d="m460.833 131.667c3.213 3.176 4.84 7.938 6.667 12.5-2.788-3.602-4.345-8.434-6.667-12.5z"/><path d="m444.167 105c4.26 3.796 6.846 9.265 10 14.167-4.012-4.045-6.548-9.563-10-14.167z"/><path d="m414.167 70c6.637 5.308 11.773 12.115 17.5 18.333-6.476-5.468-11.552-12.337-17.5-18.333z"/><path d="m377.5 41.667c3.25 2.028 7.015 3.541 9.167 6.667-2.93-2.349-6.802-3.755-9.167-6.667z"/><path d="m351.667 27.5c3.471 1.251 7.079 2.365 9.166 5-2.95-1.772-6.685-2.76-9.166-5z"/><path d="m111.667 55c2.152-3.126 5.917-4.639 9.167-6.667-2.366 2.913-6.238 4.318-9.167 6.667z"/><path d="m85 76.667c3.371-4.685 8.187-7.924 12.5-11.667-3.533 4.522-8.449 7.662-12.5 11.667z"/><path d="m47.5 122.5c3.154-4.901 5.74-10.371 10-14.167-3.452 4.604-5.989 10.123-10 14.167z"/><path d="m34.167 147.5c1.827-4.562 3.454-9.324 6.667-12.5-2.323 4.067-3.879 8.899-6.667 12.5z"/><path d="m34.167 345c2.788 3.602 4.345 8.434 6.667 12.5-3.214-3.176-4.84-7.938-6.667-12.5z"/><path d="m47.5 370c4.011 4.044 6.548 9.563 10 14.167-4.26-3.796-6.846-9.266-10-14.167z"/><path d="m85 415.833c4.051 4.005 8.967 7.145 12.5 11.667-4.313-3.742-9.129-6.981-12.5-11.667z"/><path d="m111.667 437.5c2.929 2.349 6.801 3.754 9.167 6.667-3.251-2.028-7.016-3.541-9.167-6.667z"/><path d="m374.167 444.167c2.365-2.913 6.237-4.318 9.166-6.667-2.151 3.126-5.916 4.639-9.166 6.667z"/><path d="m397.5 427.5c3.533-4.522 8.449-7.662 12.5-11.667-3.37 4.686-8.187 7.925-12.5 11.667z"/><path d="m437.5 384.167c3.452-4.604 5.989-10.123 10-14.167-3.154 4.901-5.74 10.371-10 14.167z"/><path d="m454.167 357.5c2.321-4.066 3.879-8.898 6.666-12.5-1.826 4.562-3.453 9.324-6.666 12.5z"/><path d="m460.833 147.5c-2.787-3.601-4.345-8.433-6.666-12.5 3.213 3.176 4.84 7.938 6.666 12.5z"/><path d="m447.5 122.5c-4.011-4.044-6.548-9.563-10-14.167 4.26 3.796 6.846 9.266 10 14.167z"/><path d="m397.5 65c4.313 3.742 9.13 6.981 12.5 11.667-4.051-4.005-8.967-7.145-12.5-11.667z"/><path d="m383.333 55c-2.929-2.349-6.801-3.754-9.166-6.667 3.25 2.028 7.015 3.541 9.166 6.667z"/></g><path d="m195 198.333c3.682 2.985 7.015 6.318 10 10-3.682-2.984-7.015-6.318-10-10z" fill="#ffce92"/><path d="m300.833 270c3.96 3.263 7.571 6.874 10.834 10.833-3.96-3.263-7.571-6.874-10.834-10.833z" fill="#ffce92"/><path d="m370.833 437.5c2.366-2.912 6.238-4.318 9.167-6.667-2.151 3.126-5.917 4.64-9.167 6.667z" fill="#ffce92"/><path d="m386.667 426.667c10.825-9.452 21.684-18.872 31.666-29.167-9.264 11.014-20.063 20.491-31.666 29.167z" fill="#ffce92"/><path d="m440.833 366.667c-3.153 4.901-5.74 10.37-10 14.166 3.452-4.604 5.989-10.122 10-14.166z" fill="#ffce92"/><path d="m454.167 341.667c-1.827 4.562-3.454 9.324-6.667 12.5 2.322-4.067 3.879-8.899 6.667-12.5z" fill="#ffce92"/><path d="m447.5 138.333c3.213 3.176 4.84 7.938 6.667 12.5-2.788-3.601-4.345-8.433-6.667-12.5z" fill="#ffce92"/><path d="m430.833 111.667c4.26 3.796 6.846 9.265 10 14.167-4.011-4.045-6.548-9.564-10-14.167z" fill="#ffce92"/><path d="m386.667 65.833c11.603 8.676 22.402 18.153 31.666 29.167-9.982-10.295-20.841-19.715-31.666-29.167z" fill="#ffce92"/><path d="m370.833 55c3.25 2.028 7.016 3.541 9.167 6.667-2.929-2.349-6.801-3.754-9.167-6.667z" fill="#ffce92"/><path d="m140.833 45.833c2.087-2.636 5.695-3.749 9.167-5-2.482 2.241-6.217 3.228-9.167 5z" fill="#adc0d1"/><path d="m115 61.667c2.152-3.126 5.917-4.639 9.167-6.667-2.366 2.913-6.238 4.318-9.167 6.667z" fill="#adc0d1"/><path d="m76.667 95c3.705-3.795 6.697-8.303 10.833-11.667-3.332 4.168-6.47 8.53-10.833 11.667z" fill="#adc0d1"/><path d="m54.167 125.833c3.154-4.902 5.74-10.371 10-14.167-3.453 4.604-5.989 10.123-10 14.167z" fill="#adc0d1"/><path d="m40.833 150.833c1.827-4.562 3.454-9.324 6.667-12.5-2.322 4.067-3.879 8.899-6.667 12.5z" fill="#adc0d1"/><path d="m40.833 341.667c2.788 3.601 4.344 8.433 6.667 12.5-3.213-3.176-4.84-7.938-6.667-12.5z" fill="#adc0d1"/><path d="m64.167 380.833c-4.26-3.796-6.846-9.265-10-14.166 4.011 4.044 6.547 9.562 10 14.166z" fill="#adc0d1"/><path d="m87.5 409.167c-4.137-3.363-7.128-7.872-10.833-11.667 4.363 3.137 7.501 7.498 10.833 11.667z" fill="#adc0d1"/><path d="m124.167 437.5c-3.25-2.027-7.015-3.541-9.167-6.667 2.929 2.349 6.801 3.755 9.167 6.667z" fill="#adc0d1"/><path d="m150 451.667c-3.471-1.252-7.08-2.365-9.167-5 2.95 1.771 6.685 2.76 9.167 5z" fill="#adc0d1"/><path d="m290 445.833c2.429-3.126 5.207-5.904 8.333-8.333-2.429 3.127-5.206 5.904-8.333 8.333z" fill="#adc0d1"/><path d="m288.333 273.333c3.682 2.985 7.016 6.318 10 10-3.682-2.984-7.015-6.318-10-10z" fill="#adc0d1"/><path d="m320 230c3.553 2.281 5.614 6.053 9.167 8.333-3.89.263-8.726-5.708-11.667-9.167 1.2-.444 2.033 3.248 2.5.834z" fill="#ffce92"/><path d="m344.167 119.167c20.997 20.114 28.755 53.467 44.166 79.167 21.556 8.167 40.726 18.719 51.667 37.5-10.05 2.172-20.456 3.988-30.833 5.833 11.271 13.729 30.164 19.835 38.333 36.667-7.981-5.313-18.212-11.202-28.333-16.666-10.181-5.497-19.757-12.068-23.334-23.333 8.562-5.049 19.81-7.413 34.167-6.667-6.44-7.78-13.854-11.139-21.667-15.833-7.986-4.799-18.046-5.345-25.833-10.833-8.093-5.705-13.412-23.604-18.333-34.167-12.145-26.064-21.12-44.068-42.5-60.833-12.579-9.864-26.02-19.607-50-19.167-7.759-6.143-19.311-16.402-31.667-12.5.154 11.122 10.374 18.177 15.833 29.167 5.261 10.589 7.013 22.814 12.5 31.667 1.729 2.788 6.793 6.613 7.5 10 1.979 9.469-6.973 16.366-5.833 25.833-1.385 2.529-1.385 10.804 0 13.333 1.398 10.546 3.591 20.298 10.833 25 2.503-12.22 3.988-25.457 11.667-32.5 8.167 17.388 16.476 34.635 27.5 49.167-.467 2.414-1.3-1.278-2.5-.833-10.394-7.384-18.781-16.774-23.333-30-4.261 8.213-.845 21.51-10.834 22.5-21.405 2.123-25.179-53.43-14.166-70-10.02-7.436-11.425-25.28-19.167-41.667-4.535-9.599-18.413-17.574-17.5-30 1.53-20.814 35.038-7.612 43.333 2.5 28.931.515 43.685 15.205 60 28.333 2.429 3.125 5.207 5.903 8.334 8.332z" fill="#fefefe"/><path d="m335.833 110.833c3.127 2.429 5.905 5.207 8.334 8.333-3.127-2.428-5.905-5.206-8.334-8.333z" fill="#ffce92"/><path d="m283.333 118.333c-1.104-5.841-5.703-8.186-7.5-13.333 10.14-3.092 15.859 10.44 7.5 13.333z" fill="#fefefe"/><path d="m154.167 371.667c3.127 2.429 5.905 5.206 8.333 8.333-3.127-2.429-5.904-5.207-8.333-8.333z" fill="#adc0d1"/><path d="m179.167 261.667c-3.829-2.561-6.171-6.606-10-9.167 4.273-.093 9.228 6.318 12.5 10-1.201.445-2.034-3.247-2.5-.833z" fill="#adc0d1"/><path d="m154.167 371.667c-21.003-20.108-28.723-53.5-44.167-79.167-21.503-8.22-40.672-18.772-51.667-37.5 9.956-2.267 20.617-3.828 30.833-5.833-11.248-13.752-30.062-19.937-38.333-36.667 5.625 1.007 8.729 6.686 14.167 10 13.725 8.365 32.875 12.484 37.5 30-8.736 4.875-19.762 7.46-34.167 6.667 6.968 6.892 12.765 11.692 20.833 16.666 7.866 4.85 18.674 4.366 26.667 10 7.988 5.631 13.505 23.562 18.333 34.167 11.81 25.94 21.153 44.095 42.5 60.833 12.468 9.776 26.022 19.664 50 19.167 7.758 6.144 19.31 16.402 31.667 12.5-.063-11.162-10.372-18.173-15.833-29.167-5.26-10.589-7.012-22.814-12.5-31.666-1.742-2.811-6.784-6.573-7.5-10-1.978-9.469 6.973-16.366 5.833-25.834 1.385-2.804 1.385-11.362 0-14.166-1.77-9.897-3.505-19.828-10.833-24.167-3.364 11.636-2.593 27.407-13.333 31.667-5.482-18.685-15.63-32.703-25-47.5.467-2.414 1.3 1.278 2.5.833 10.215 7.008 18.036 16.409 22.5 29.167 4.352-8.153.887-21.426 10.833-22.5 21.337-2.306 25.136 53.597 14.167 70 9.961 7.442 11.431 25.291 19.167 41.666 4.496 9.517 18.441 17.704 17.5 30-1.587 20.752-34.957 7.602-43.333-2.5-28.93-.514-43.684-15.204-60-28.333-2.43-3.127-5.208-5.904-8.334-8.333z" fill="#fefefe"/><path d="m215 372.5c.935 6.01 5.823 8.066 7.5 13.333-10.249 2.983-15.659-10.239-7.5-13.333z" fill="#fefefe"/><path d="m233.333 11.667c7.507-1.388 20.826-1.388 28.333 0-9.443 0-18.888 0-28.333 0z" fill="#adc0d1"/><path d="m233.333 480.833h28.333c-7.507 1.388-20.825 1.388-28.333 0z" fill="#adc0d1"/></g></svg>