<?xml version="1.0" encoding="utf-8"?>
<!-- Generator: Adobe Illustrator 15.1.0, SVG Export Plug-In . SVG Version: 6.00 Build 0)  -->
<!DOCTYPE svg PUBLIC "-//W3C//DTD SVG 1.1//EN" "http://www.w3.org/Graphics/SVG/1.1/DTD/svg11.dtd">
<svg version="1.1" id="Layer_1" xmlns="http://www.w3.org/2000/svg" xmlns:xlink="http://www.w3.org/1999/xlink" x="0px" y="0px"
	 width="500px" height="500px" viewBox="0 0 500 500" enable-background="new 0 0 500 500" xml:space="preserve">
<g>
	<g>
		<path fill-rule="evenodd" clip-rule="evenodd" fill="#577FA2" d="M143.333,27.5c53.271-29.859,155.062-29.859,208.333,0
			c2.481,2.24,6.216,3.228,9.166,5c5.852,2.76,10.666,6.557,16.667,9.167c2.365,2.913,6.237,4.318,9.167,6.667
			c9.876,6.513,18.138,14.64,27.5,21.667c5.948,5.996,11.024,12.865,17.5,18.333c3.57,6.152,8.677,10.767,12.5,16.667
			c3.452,4.604,5.988,10.122,10,14.167c1.555,4.834,4.6,8.178,6.666,12.5c2.322,4.067,3.879,8.899,6.667,12.5
			c10.551,24.727,19.178,51.377,21.667,84.167c0.522,2.533-1.067,7.178,0.833,8.333c0,6.389,0,12.778,0,19.167
			c-1.9,1.155-0.311,5.801-0.833,8.334c-2.489,32.789-11.116,59.439-21.667,84.166c-2.788,3.602-4.345,8.434-6.667,12.5
			c-2.066,4.322-5.112,7.666-6.666,12.5c-4.012,4.045-6.548,9.563-10,14.167c-3.823,5.899-8.93,10.515-12.5,16.667
			c-6.476,5.469-11.552,12.337-17.5,18.333c-9.362,7.026-17.624,15.154-27.5,21.667c-2.93,2.349-6.802,3.754-9.167,6.666
			c-6.001,2.61-10.815,6.407-16.667,9.167c-2.95,1.772-6.685,2.76-9.166,5c-53.271,29.859-155.062,29.859-208.333,0
			c-2.482-2.24-6.217-3.228-9.167-5c-5.851-2.76-10.666-6.557-16.667-9.167c-2.365-2.912-6.237-4.317-9.167-6.666
			c-9.876-6.513-18.138-14.641-27.5-21.667c-5.949-5.996-11.024-12.864-17.5-18.333c-3.57-6.152-8.677-10.768-12.5-16.667
			c-3.452-4.604-5.989-10.122-10-14.167c-1.555-4.834-4.6-8.178-6.667-12.5c-2.322-4.066-3.879-8.898-6.667-12.5
			c-10.551-24.727-19.178-51.377-21.667-84.166C5.311,261.634,6.9,256.988,5,255.833c0-6.389,0-12.777,0-19.167
			c1.9-1.155,0.311-5.8,0.833-8.333c2.488-32.79,11.116-59.44,21.667-84.167c2.788-3.601,4.345-8.433,6.667-12.5
			c2.067-4.322,5.112-7.666,6.667-12.5c4.011-4.044,6.548-9.563,10-14.167c3.823-5.899,8.93-10.515,12.5-16.667
			c6.476-5.469,11.551-12.338,17.5-18.333c9.362-7.026,17.624-15.154,27.5-21.667c2.929-2.349,6.801-3.754,9.167-6.667
			c6.001-2.61,10.815-6.407,16.667-9.167C137.117,30.728,140.852,29.74,143.333,27.5z M233.333,11.667
			c-46.993,2.729-81.745,17.7-112.5,36.667c-3.25,2.027-7.015,3.541-9.167,6.667c-5.671,2.384-9.458,6.652-14.167,10
			c-4.313,3.742-9.129,6.981-12.5,11.667c-10.967,8.755-19.643,19.802-27.5,31.667c-4.26,3.795-6.846,9.265-10,14.167
			c-2.327,4.062-5.302,7.476-6.667,12.5c-3.213,3.176-4.84,7.938-6.667,12.5c-11.144,24.134-19.872,50.684-21.667,84.167
			c-1.9,1.156-0.311,5.801-0.833,8.333c0,4.167,0,8.333,0,12.5c0.523,2.533-1.067,7.178,0.833,8.333
			c1.794,33.483,10.522,60.033,21.667,84.167c1.827,4.562,3.454,9.324,6.667,12.5c1.365,5.024,4.34,8.438,6.667,12.5
			c3.154,4.901,5.74,10.371,10,14.167c7.857,11.864,16.533,22.911,27.5,31.666c3.371,4.686,8.187,7.925,12.5,11.667
			c4.708,3.348,8.495,7.616,14.167,10c2.152,3.126,5.917,4.639,9.167,6.667c30.755,18.966,65.507,33.937,112.5,36.666
			c7.507,1.388,20.826,1.388,28.333,0c46.992-2.729,81.744-17.7,112.5-36.666c3.25-2.028,7.015-3.541,9.166-6.667
			c5.672-2.384,9.459-6.652,14.167-10c4.313-3.742,9.13-6.981,12.5-11.667c10.967-8.755,19.643-19.802,27.5-31.666
			c4.26-3.796,6.846-9.266,10-14.167c2.326-4.062,5.302-7.476,6.667-12.5c3.213-3.176,4.84-7.938,6.666-12.5
			c11.145-24.134,19.872-50.684,21.667-84.167c1.9-1.155,0.311-5.8,0.833-8.333c0-4.167,0-8.333,0-12.5
			c-0.522-2.533,1.067-7.178-0.833-8.333c-1.795-33.483-10.522-60.033-21.667-84.167c-1.826-4.562-3.453-9.324-6.666-12.5
			c-1.365-5.024-4.341-8.438-6.667-12.5c-3.154-4.901-5.74-10.371-10-14.167c-7.857-11.865-16.533-22.912-27.5-31.667
			c-3.37-4.685-8.187-7.924-12.5-11.667c-4.708-3.348-8.495-7.616-14.167-10c-2.151-3.126-5.916-4.639-9.166-6.667
			c-30.756-18.966-65.508-33.938-112.5-36.667C254.159,10.279,240.841,10.279,233.333,11.667z"/>
		<path fill-rule="evenodd" clip-rule="evenodd" fill="#FFA230" d="M195,198.333c-11.748-17.665-24.085-33.172-24.167-61.667
			C170.674,81.235,196.381,25.263,250,17.5c1.155,1.9,5.801,0.311,8.333,0.833c46.253,3.469,81.039,18.406,112.5,36.667
			c2.366,2.913,6.238,4.318,9.167,6.667c2.358,1.253,3.55,3.672,6.667,4.167c10.825,9.452,21.684,18.872,31.666,29.167
			c3.57,6.152,8.678,10.768,12.5,16.667c3.452,4.604,5.989,10.123,10,14.167c1.555,4.834,4.601,8.178,6.667,12.5
			c2.322,4.067,3.879,8.899,6.667,12.5c27.905,50.355,27.904,140.478,0,190.833c-2.788,3.601-4.345,8.433-6.667,12.5
			c-2.066,4.321-5.112,7.665-6.667,12.5c-4.011,4.044-6.548,9.562-10,14.166c-3.822,5.899-8.93,10.515-12.5,16.667
			c-9.982,10.295-20.841,19.715-31.666,29.167c-3.117,0.494-4.309,2.913-6.667,4.166c-2.929,2.349-6.801,3.755-9.167,6.667
			c-29.123,16.988-61.327,30.894-102.5,35.833c38.923-17.188,59.736-52.484,67.5-100.833c1.913-1.699,0.302-6.921,0.834-10
			c1.054-36.609-7.917-63.194-25-81.667c-3.263-3.959-6.874-7.57-10.834-10.833c-28.366-24.133-65.939-39.061-95.833-61.667
			C202.015,204.651,198.682,201.318,195,198.333z M335.833,110.833c-16.315-13.128-31.069-27.819-60-28.333
			C267.538,72.388,234.03,59.186,232.5,80c-0.913,12.426,12.965,20.401,17.5,30c7.742,16.387,9.147,34.231,19.167,41.667
			c-11.013,16.57-7.239,72.123,14.166,70c9.989-0.99,6.573-14.287,10.834-22.5c4.552,13.226,12.939,22.616,23.333,30
			c2.941,3.459,7.777,9.43,11.667,9.167c-3.553-2.281-5.614-6.053-9.167-8.333c-11.024-14.532-19.333-31.778-27.5-49.167
			c-7.679,7.043-9.164,20.28-11.667,32.5c-7.242-4.702-9.435-14.454-10.833-25c0-4.445,0-8.889,0-13.333
			c-1.14-9.468,7.812-16.365,5.833-25.833c-0.707-3.387-5.771-7.212-7.5-10c-5.487-8.852-7.239-21.078-12.5-31.667
			C250.374,96.51,240.154,89.456,240,78.333c12.356-3.902,23.908,6.357,31.667,12.5c23.98-0.44,37.421,9.303,50,19.167
			c21.38,16.765,30.355,34.77,42.5,60.833c4.921,10.562,10.24,28.462,18.333,34.167c7.787,5.489,17.847,6.034,25.833,10.833
			c7.812,4.694,15.227,8.053,21.667,15.833c-14.357-0.746-25.604,1.618-34.167,6.667c3.577,11.266,13.153,17.836,23.334,23.333
			c10.121,5.464,20.352,11.353,28.333,16.666c-8.169-16.831-27.062-22.938-38.333-36.667c10.377-1.845,20.783-3.661,30.833-5.833
			c-10.941-18.781-30.111-29.333-51.667-37.5c-15.411-25.7-23.169-59.053-44.166-79.167
			C341.738,116.04,338.96,113.262,335.833,110.833z M275.833,105c1.797,5.147,6.396,7.493,7.5,13.333
			C291.692,115.44,285.973,101.908,275.833,105z"/>
		<path fill-rule="evenodd" clip-rule="evenodd" fill="#FFCE92" d="M250,17.5c2.533,0.522,7.178-1.067,8.333,0.833
			C255.801,17.811,251.155,19.4,250,17.5z"/>
		<path fill-rule="evenodd" clip-rule="evenodd" fill="#577FA2" d="M150,40.833c20.126-8.485,40.903-16.32,65.833-20
			c0.69,2.419-5.282,3.988-9.167,6.667c-25.394,17.508-42.841,49.838-46.667,90c-1.928,3.072-0.291,9.709-0.833,14.167
			c0.494,89.783,78.612,101.945,129.167,141.667c2.985,3.682,6.318,7.016,10,10c11.372,15.754,24.779,34.42,25.834,62.5
			c1.267,33.74-8.644,73.146-25.834,91.667c-3.126,2.429-5.904,5.207-8.333,8.333c-12.937,13.674-28.05,24.848-50,27.5
			c-31.196,3.77-66.085-13.42-90-21.666c-2.482-2.24-6.217-3.229-9.167-5c-5.852-2.76-10.666-6.557-16.667-9.167
			c-2.365-2.912-6.237-4.318-9.167-6.667c-9.876-6.513-18.138-14.64-27.5-21.666c-3.332-4.169-6.47-8.53-10.833-11.667
			c-3.57-6.152-8.677-10.768-12.5-16.667c-3.452-4.604-5.989-10.122-10-14.166c-1.554-4.835-4.6-8.179-6.667-12.5
			c-2.322-4.067-3.879-8.899-6.667-12.5c-10.551-24.728-19.178-51.378-21.667-84.167c-0.522-2.533,1.067-7.178-0.833-8.333
			c0-1.944,0-3.889,0-5.833c1.9-1.156,0.311-5.801,0.833-8.333c2.489-32.789,11.116-59.439,21.667-84.167
			c2.788-3.601,4.344-8.433,6.667-12.5c2.067-4.322,5.112-7.666,6.667-12.5c4.011-4.044,6.548-9.563,10-14.167
			c3.823-5.899,8.93-10.515,12.5-16.667c4.363-3.137,7.502-7.499,10.833-11.667c9.362-7.027,17.624-15.154,27.5-21.667
			c2.929-2.349,6.801-3.754,9.167-6.667c6.001-2.61,10.815-6.407,16.667-9.167C143.783,44.061,147.518,43.074,150,40.833z
			 M228.333,315.833c1.14,9.468-7.812,16.365-5.833,25.834c0.716,3.427,5.758,7.189,7.5,10c5.488,8.852,7.24,21.077,12.5,31.666
			c5.461,10.994,15.77,18.005,15.833,29.167c-12.356,3.902-23.908-6.356-31.667-12.5c-23.978,0.497-37.532-9.391-50-19.167
			c-21.347-16.738-30.69-34.893-42.5-60.833c-4.828-10.604-10.345-28.536-18.333-34.167c-7.993-5.634-18.801-5.15-26.667-10
			c-8.068-4.974-13.865-9.774-20.833-16.666c14.404,0.793,25.43-1.792,34.167-6.667c-4.625-17.516-23.775-21.635-37.5-30
			c-5.438-3.314-8.541-8.993-14.167-10c8.271,16.729,27.085,22.914,38.333,36.667C78.95,251.172,68.29,252.733,58.333,255
			c10.994,18.728,30.164,29.28,51.667,37.5c15.444,25.667,23.164,59.059,44.167,79.167c2.429,3.126,5.207,5.904,8.333,8.333
			c16.316,13.129,31.07,27.819,60,28.333c8.376,10.102,41.746,23.252,43.333,2.5c0.941-12.296-13.004-20.483-17.5-30
			c-7.736-16.375-9.206-34.224-19.167-41.666c10.969-16.403,7.17-72.306-14.167-70c-9.947,1.074-6.482,14.347-10.833,22.5
			c-4.464-12.758-12.285-22.159-22.5-29.167c-3.272-3.682-8.227-10.093-12.5-10c3.829,2.561,6.171,6.606,10,9.167
			c9.37,14.797,19.518,28.815,25,47.5c10.741-4.26,9.969-20.031,13.333-31.667c7.328,4.339,9.063,14.27,10.833,24.167
			C228.333,306.389,228.333,311.111,228.333,315.833z M222.5,385.833c-1.677-5.267-6.565-7.323-7.5-13.333
			C206.841,375.594,212.251,388.816,222.5,385.833z"/>
		<path fill-rule="evenodd" clip-rule="evenodd" fill="#ADC0D1" d="M160,117.5c-0.543,4.457,1.094,11.094-0.833,14.167
			C159.709,127.209,158.072,120.572,160,117.5z"/>
		<path fill-rule="evenodd" clip-rule="evenodd" fill="#FFCE92" d="M270,175c0,4.444,0,8.889,0,13.333
			C268.615,185.804,268.615,177.529,270,175z"/>
		<path fill-rule="evenodd" clip-rule="evenodd" fill="#ADC0D1" d="M5,236.667c0.522-2.533-1.067-7.178,0.833-8.333
			C5.311,230.866,6.9,235.511,5,236.667z"/>
		<path fill-rule="evenodd" clip-rule="evenodd" fill="#ADC0D1" d="M489.167,228.333c1.899,1.155,0.311,5.8,0.833,8.333
			C488.1,235.511,489.689,230.866,489.167,228.333z"/>
		<path fill-rule="evenodd" clip-rule="evenodd" fill="#ADC0D1" d="M12.5,231.667c0,2.778,0,5.556,0,8.333c-0.278,0-0.556,0-0.833,0
			C12.189,237.467,10.6,232.822,12.5,231.667z"/>
		<path fill-rule="evenodd" clip-rule="evenodd" fill="#ADC0D1" d="M482.5,231.667c1.9,1.156,0.311,5.801,0.833,8.333
			c-0.277,0-0.556,0-0.833,0C482.5,237.222,482.5,234.444,482.5,231.667z"/>
		<path fill-rule="evenodd" clip-rule="evenodd" fill="#ADC0D1" d="M18.333,243.333c0.522-2.533-1.067-7.178,0.833-8.333
			C18.644,237.533,20.233,242.178,18.333,243.333z"/>
		<path fill-rule="evenodd" clip-rule="evenodd" fill="#FEFEFE" d="M11.667,240c0.278,0,0.556,0,0.833,0c0,4.167,0,8.333,0,12.5
			c-0.278,0-0.556,0-0.833,0C11.667,248.333,11.667,244.167,11.667,240z"/>
		<path fill-rule="evenodd" clip-rule="evenodd" fill="#FEFEFE" d="M482.5,240c0.277,0,0.556,0,0.833,0c0,4.167,0,8.333,0,12.5
			c-0.277,0-0.556,0-0.833,0C482.5,248.333,482.5,244.167,482.5,240z"/>
		<path fill-rule="evenodd" clip-rule="evenodd" fill="#ADC0D1" d="M18.333,249.167c1.9,1.156,0.311,5.8,0.833,8.333
			C17.267,256.345,18.856,251.699,18.333,249.167z"/>
		<path fill-rule="evenodd" clip-rule="evenodd" fill="#ADC0D1" d="M11.667,252.5c0.278,0,0.556,0,0.833,0c0,2.777,0,5.556,0,8.333
			C10.6,259.678,12.189,255.033,11.667,252.5z"/>
		<path fill-rule="evenodd" clip-rule="evenodd" fill="#ADC0D1" d="M482.5,252.5c0.277,0,0.556,0,0.833,0
			c-0.522,2.533,1.067,7.178-0.833,8.333C482.5,258.056,482.5,255.277,482.5,252.5z"/>
		<path fill-rule="evenodd" clip-rule="evenodd" fill="#ADC0D1" d="M5,255.833c1.9,1.155,0.311,5.801,0.833,8.334
			C3.933,263.012,5.522,258.366,5,255.833z"/>
		<path fill-rule="evenodd" clip-rule="evenodd" fill="#ADC0D1" d="M490,255.833c-0.522,2.533,1.066,7.179-0.833,8.334
			C489.689,261.634,488.1,256.988,490,255.833z"/>
		<path fill-rule="evenodd" clip-rule="evenodd" fill="#ADC0D1" d="M228.333,301.667c1.385,2.804,1.385,11.362,0,14.166
			C228.333,311.111,228.333,306.389,228.333,301.667z"/>
		<path fill-rule="evenodd" clip-rule="evenodd" fill="#FFCE92" d="M335.833,372.5c0.532-3.079-1.079-8.302,0.834-10
			C336.135,365.579,337.746,370.801,335.833,372.5z"/>
		<path fill-rule="evenodd" clip-rule="evenodd" fill="#ADC0D1" d="M134.167,32.5c2.087-2.635,5.696-3.749,9.167-5
			C140.852,29.74,137.117,30.728,134.167,32.5z"/>
		<path fill-rule="evenodd" clip-rule="evenodd" fill="#ADC0D1" d="M108.333,48.333c2.152-3.126,5.917-4.639,9.167-6.667
			C115.135,44.579,111.263,45.985,108.333,48.333z"/>
		<path fill-rule="evenodd" clip-rule="evenodd" fill="#ADC0D1" d="M63.333,88.333C69.06,82.116,74.196,75.308,80.833,70
			C74.885,75.996,69.809,82.865,63.333,88.333z"/>
		<path fill-rule="evenodd" clip-rule="evenodd" fill="#ADC0D1" d="M40.833,119.167c3.154-4.901,5.74-10.371,10-14.167
			C47.381,109.604,44.845,115.122,40.833,119.167z"/>
		<path fill-rule="evenodd" clip-rule="evenodd" fill="#ADC0D1" d="M27.5,144.167c1.827-4.562,3.454-9.324,6.667-12.5
			C31.845,135.733,30.288,140.565,27.5,144.167z"/>
		<path fill-rule="evenodd" clip-rule="evenodd" fill="#ADC0D1" d="M27.5,348.333c2.788,3.602,4.345,8.434,6.667,12.5
			C30.954,357.657,29.327,352.896,27.5,348.333z"/>
		<path fill-rule="evenodd" clip-rule="evenodd" fill="#ADC0D1" d="M50.833,387.5c-4.26-3.796-6.846-9.266-10-14.167
			C44.845,377.378,47.381,382.896,50.833,387.5z"/>
		<path fill-rule="evenodd" clip-rule="evenodd" fill="#ADC0D1" d="M80.833,422.5c-6.637-5.308-11.773-12.115-17.5-18.333
			C69.809,409.636,74.885,416.504,80.833,422.5z"/>
		<path fill-rule="evenodd" clip-rule="evenodd" fill="#ADC0D1" d="M117.5,450.833c-3.25-2.027-7.015-3.54-9.167-6.666
			C111.263,446.516,115.135,447.921,117.5,450.833z"/>
		<path fill-rule="evenodd" clip-rule="evenodd" fill="#ADC0D1" d="M143.333,465c-3.471-1.251-7.08-2.364-9.167-5
			C137.117,461.772,140.852,462.76,143.333,465z"/>
		<path fill-rule="evenodd" clip-rule="evenodd" fill="#ADC0D1" d="M351.667,465c2.481-2.24,6.216-3.228,9.166-5
			C358.746,462.636,355.138,463.749,351.667,465z"/>
		<path fill-rule="evenodd" clip-rule="evenodd" fill="#ADC0D1" d="M377.5,450.833c2.365-2.912,6.237-4.317,9.167-6.666
			C384.515,447.293,380.75,448.806,377.5,450.833z"/>
		<path fill-rule="evenodd" clip-rule="evenodd" fill="#ADC0D1" d="M414.167,422.5c5.948-5.996,11.024-12.864,17.5-18.333
			C425.94,410.385,420.804,417.192,414.167,422.5z"/>
		<path fill-rule="evenodd" clip-rule="evenodd" fill="#ADC0D1" d="M454.167,373.333c-3.154,4.901-5.74,10.371-10,14.167
			C447.619,382.896,450.155,377.378,454.167,373.333z"/>
		<path fill-rule="evenodd" clip-rule="evenodd" fill="#ADC0D1" d="M467.5,348.333c-1.827,4.562-3.453,9.324-6.667,12.5
			C463.155,356.767,464.712,351.935,467.5,348.333z"/>
		<path fill-rule="evenodd" clip-rule="evenodd" fill="#ADC0D1" d="M460.833,131.667c3.213,3.176,4.84,7.938,6.667,12.5
			C464.712,140.565,463.155,135.733,460.833,131.667z"/>
		<path fill-rule="evenodd" clip-rule="evenodd" fill="#ADC0D1" d="M444.167,105c4.26,3.796,6.846,9.265,10,14.167
			C450.155,115.122,447.619,109.604,444.167,105z"/>
		<path fill-rule="evenodd" clip-rule="evenodd" fill="#ADC0D1" d="M414.167,70c6.637,5.308,11.773,12.115,17.5,18.333
			C425.191,82.865,420.115,75.996,414.167,70z"/>
		<path fill-rule="evenodd" clip-rule="evenodd" fill="#ADC0D1" d="M377.5,41.667c3.25,2.028,7.015,3.541,9.167,6.667
			C383.737,45.985,379.865,44.579,377.5,41.667z"/>
		<path fill-rule="evenodd" clip-rule="evenodd" fill="#ADC0D1" d="M351.667,27.5c3.471,1.251,7.079,2.365,9.166,5
			C357.883,30.728,354.148,29.74,351.667,27.5z"/>
		<path fill-rule="evenodd" clip-rule="evenodd" fill="#ADC0D1" d="M111.667,55c2.152-3.126,5.917-4.639,9.167-6.667
			C118.468,51.246,114.596,52.651,111.667,55z"/>
		<path fill-rule="evenodd" clip-rule="evenodd" fill="#ADC0D1" d="M85,76.667c3.371-4.685,8.187-7.924,12.5-11.667
			C93.967,69.522,89.051,72.662,85,76.667z"/>
		<path fill-rule="evenodd" clip-rule="evenodd" fill="#ADC0D1" d="M47.5,122.5c3.154-4.901,5.74-10.371,10-14.167
			C54.048,112.937,51.511,118.456,47.5,122.5z"/>
		<path fill-rule="evenodd" clip-rule="evenodd" fill="#ADC0D1" d="M34.167,147.5c1.827-4.562,3.454-9.324,6.667-12.5
			C38.511,139.067,36.955,143.899,34.167,147.5z"/>
		<path fill-rule="evenodd" clip-rule="evenodd" fill="#ADC0D1" d="M34.167,345c2.788,3.602,4.345,8.434,6.667,12.5
			C37.62,354.324,35.994,349.562,34.167,345z"/>
		<path fill-rule="evenodd" clip-rule="evenodd" fill="#ADC0D1" d="M47.5,370c4.011,4.044,6.548,9.563,10,14.167
			C53.24,380.371,50.654,374.901,47.5,370z"/>
		<path fill-rule="evenodd" clip-rule="evenodd" fill="#ADC0D1" d="M85,415.833c4.051,4.005,8.967,7.145,12.5,11.667
			C93.187,423.758,88.371,420.519,85,415.833z"/>
		<path fill-rule="evenodd" clip-rule="evenodd" fill="#ADC0D1" d="M111.667,437.5c2.929,2.349,6.801,3.754,9.167,6.667
			C117.583,442.139,113.818,440.626,111.667,437.5z"/>
		<path fill-rule="evenodd" clip-rule="evenodd" fill="#ADC0D1" d="M374.167,444.167c2.365-2.913,6.237-4.318,9.166-6.667
			C381.182,440.626,377.417,442.139,374.167,444.167z"/>
		<path fill-rule="evenodd" clip-rule="evenodd" fill="#ADC0D1" d="M397.5,427.5c3.533-4.522,8.449-7.662,12.5-11.667
			C406.63,420.519,401.813,423.758,397.5,427.5z"/>
		<path fill-rule="evenodd" clip-rule="evenodd" fill="#ADC0D1" d="M437.5,384.167c3.452-4.604,5.989-10.123,10-14.167
			C444.346,374.901,441.76,380.371,437.5,384.167z"/>
		<path fill-rule="evenodd" clip-rule="evenodd" fill="#ADC0D1" d="M454.167,357.5c2.321-4.066,3.879-8.898,6.666-12.5
			C459.007,349.562,457.38,354.324,454.167,357.5z"/>
		<path fill-rule="evenodd" clip-rule="evenodd" fill="#ADC0D1" d="M460.833,147.5c-2.787-3.601-4.345-8.433-6.666-12.5
			C457.38,138.176,459.007,142.938,460.833,147.5z"/>
		<path fill-rule="evenodd" clip-rule="evenodd" fill="#ADC0D1" d="M447.5,122.5c-4.011-4.044-6.548-9.563-10-14.167
			C441.76,112.129,444.346,117.599,447.5,122.5z"/>
		<path fill-rule="evenodd" clip-rule="evenodd" fill="#ADC0D1" d="M397.5,65c4.313,3.742,9.13,6.981,12.5,11.667
			C405.949,72.662,401.033,69.522,397.5,65z"/>
		<path fill-rule="evenodd" clip-rule="evenodd" fill="#ADC0D1" d="M383.333,55c-2.929-2.349-6.801-3.754-9.166-6.667
			C377.417,50.361,381.182,51.874,383.333,55z"/>
		<path fill-rule="evenodd" clip-rule="evenodd" fill="#FFCE92" d="M195,198.333c3.682,2.985,7.015,6.318,10,10
			C201.318,205.349,197.985,202.015,195,198.333z"/>
		<path fill-rule="evenodd" clip-rule="evenodd" fill="#FFCE92" d="M300.833,270c3.96,3.263,7.571,6.874,10.834,10.833
			C307.707,277.57,304.096,273.959,300.833,270z"/>
		<path fill-rule="evenodd" clip-rule="evenodd" fill="#FFCE92" d="M370.833,437.5c2.366-2.912,6.238-4.318,9.167-6.667
			C377.849,433.959,374.083,435.473,370.833,437.5z"/>
		<path fill-rule="evenodd" clip-rule="evenodd" fill="#FFCE92" d="M386.667,426.667c10.825-9.452,21.684-18.872,31.666-29.167
			C409.069,408.514,398.27,417.991,386.667,426.667z"/>
		<path fill-rule="evenodd" clip-rule="evenodd" fill="#FFCE92" d="M440.833,366.667c-3.153,4.901-5.74,10.37-10,14.166
			C434.285,376.229,436.822,370.711,440.833,366.667z"/>
		<path fill-rule="evenodd" clip-rule="evenodd" fill="#FFCE92" d="M454.167,341.667c-1.827,4.562-3.454,9.324-6.667,12.5
			C449.822,350.1,451.379,345.268,454.167,341.667z"/>
		<path fill-rule="evenodd" clip-rule="evenodd" fill="#FFCE92" d="M447.5,138.333c3.213,3.176,4.84,7.938,6.667,12.5
			C451.379,147.232,449.822,142.4,447.5,138.333z"/>
		<path fill-rule="evenodd" clip-rule="evenodd" fill="#FFCE92" d="M430.833,111.667c4.26,3.796,6.846,9.265,10,14.167
			C436.822,121.789,434.285,116.27,430.833,111.667z"/>
		<path fill-rule="evenodd" clip-rule="evenodd" fill="#FFCE92" d="M386.667,65.833C398.27,74.509,409.069,83.986,418.333,95
			C408.351,84.705,397.492,75.285,386.667,65.833z"/>
		<path fill-rule="evenodd" clip-rule="evenodd" fill="#FFCE92" d="M370.833,55c3.25,2.028,7.016,3.541,9.167,6.667
			C377.071,59.318,373.199,57.913,370.833,55z"/>
		<path fill-rule="evenodd" clip-rule="evenodd" fill="#ADC0D1" d="M140.833,45.833c2.087-2.636,5.695-3.749,9.167-5
			C147.518,43.074,143.783,44.061,140.833,45.833z"/>
		<path fill-rule="evenodd" clip-rule="evenodd" fill="#ADC0D1" d="M115,61.667c2.152-3.126,5.917-4.639,9.167-6.667
			C121.801,57.913,117.929,59.318,115,61.667z"/>
		<path fill-rule="evenodd" clip-rule="evenodd" fill="#ADC0D1" d="M76.667,95c3.705-3.795,6.697-8.303,10.833-11.667
			C84.168,87.501,81.03,91.863,76.667,95z"/>
		<path fill-rule="evenodd" clip-rule="evenodd" fill="#ADC0D1" d="M54.167,125.833c3.154-4.902,5.74-10.371,10-14.167
			C60.714,116.27,58.178,121.789,54.167,125.833z"/>
		<path fill-rule="evenodd" clip-rule="evenodd" fill="#ADC0D1" d="M40.833,150.833c1.827-4.562,3.454-9.324,6.667-12.5
			C45.178,142.4,43.621,147.232,40.833,150.833z"/>
		<path fill-rule="evenodd" clip-rule="evenodd" fill="#ADC0D1" d="M40.833,341.667c2.788,3.601,4.344,8.433,6.667,12.5
			C44.287,350.991,42.66,346.229,40.833,341.667z"/>
		<path fill-rule="evenodd" clip-rule="evenodd" fill="#ADC0D1" d="M64.167,380.833c-4.26-3.796-6.846-9.265-10-14.166
			C58.178,370.711,60.714,376.229,64.167,380.833z"/>
		<path fill-rule="evenodd" clip-rule="evenodd" fill="#ADC0D1" d="M87.5,409.167c-4.137-3.363-7.128-7.872-10.833-11.667
			C81.03,400.637,84.168,404.998,87.5,409.167z"/>
		<path fill-rule="evenodd" clip-rule="evenodd" fill="#ADC0D1" d="M124.167,437.5c-3.25-2.027-7.015-3.541-9.167-6.667
			C117.929,433.182,121.801,434.588,124.167,437.5z"/>
		<path fill-rule="evenodd" clip-rule="evenodd" fill="#ADC0D1" d="M150,451.667c-3.471-1.252-7.08-2.365-9.167-5
			C143.783,448.438,147.518,449.427,150,451.667z"/>
		<path fill-rule="evenodd" clip-rule="evenodd" fill="#ADC0D1" d="M290,445.833c2.429-3.126,5.207-5.904,8.333-8.333
			C295.904,440.627,293.127,443.404,290,445.833z"/>
		<path fill-rule="evenodd" clip-rule="evenodd" fill="#ADC0D1" d="M288.333,273.333c3.682,2.985,7.016,6.318,10,10
			C294.651,280.349,291.318,277.015,288.333,273.333z"/>
		<path fill-rule="evenodd" clip-rule="evenodd" fill="#FFCE92" d="M320,230c3.553,2.281,5.614,6.053,9.167,8.333
			c-3.89,0.263-8.726-5.708-11.667-9.167C318.7,228.722,319.533,232.414,320,230z"/>
		<path fill-rule="evenodd" clip-rule="evenodd" fill="#FEFEFE" d="M344.167,119.167c20.997,20.114,28.755,53.467,44.166,79.167
			c21.556,8.167,40.726,18.719,51.667,37.5c-10.05,2.172-20.456,3.988-30.833,5.833c11.271,13.729,30.164,19.835,38.333,36.667
			c-7.981-5.313-18.212-11.202-28.333-16.666c-10.181-5.497-19.757-12.068-23.334-23.333c8.562-5.049,19.81-7.413,34.167-6.667
			c-6.44-7.78-13.854-11.139-21.667-15.833c-7.986-4.799-18.046-5.345-25.833-10.833c-8.093-5.705-13.412-23.604-18.333-34.167
			c-12.145-26.064-21.12-44.068-42.5-60.833c-12.579-9.864-26.02-19.607-50-19.167c-7.759-6.143-19.311-16.402-31.667-12.5
			c0.154,11.122,10.374,18.177,15.833,29.167c5.261,10.589,7.013,22.814,12.5,31.667c1.729,2.788,6.793,6.613,7.5,10
			c1.979,9.469-6.973,16.366-5.833,25.833c-1.385,2.529-1.385,10.804,0,13.333c1.398,10.546,3.591,20.298,10.833,25
			c2.503-12.22,3.988-25.457,11.667-32.5c8.167,17.388,16.476,34.635,27.5,49.167c-0.467,2.414-1.3-1.278-2.5-0.833
			c-10.394-7.384-18.781-16.774-23.333-30c-4.261,8.213-0.845,21.51-10.834,22.5c-21.405,2.123-25.179-53.43-14.166-70
			c-10.02-7.436-11.425-25.28-19.167-41.667c-4.535-9.599-18.413-17.574-17.5-30c1.53-20.814,35.038-7.612,43.333,2.5
			c28.931,0.515,43.685,15.205,60,28.333C338.262,113.96,341.04,116.738,344.167,119.167z"/>
		<path fill-rule="evenodd" clip-rule="evenodd" fill="#FFCE92" d="M335.833,110.833c3.127,2.429,5.905,5.207,8.334,8.333
			C341.04,116.738,338.262,113.96,335.833,110.833z"/>
		<path fill-rule="evenodd" clip-rule="evenodd" fill="#FEFEFE" d="M283.333,118.333c-1.104-5.841-5.703-8.186-7.5-13.333
			C285.973,101.908,291.692,115.44,283.333,118.333z"/>
		<path fill-rule="evenodd" clip-rule="evenodd" fill="#ADC0D1" d="M154.167,371.667c3.127,2.429,5.905,5.206,8.333,8.333
			C159.373,377.571,156.596,374.793,154.167,371.667z"/>
		<path fill-rule="evenodd" clip-rule="evenodd" fill="#ADC0D1" d="M179.167,261.667c-3.829-2.561-6.171-6.606-10-9.167
			c4.273-0.093,9.228,6.318,12.5,10C180.466,262.945,179.633,259.253,179.167,261.667z"/>
		<path fill-rule="evenodd" clip-rule="evenodd" fill="#FEFEFE" d="M154.167,371.667c-21.003-20.108-28.723-53.5-44.167-79.167
			c-21.503-8.22-40.672-18.772-51.667-37.5c9.956-2.267,20.617-3.828,30.833-5.833c-11.248-13.752-30.062-19.937-38.333-36.667
			c5.625,1.007,8.729,6.686,14.167,10c13.725,8.365,32.875,12.484,37.5,30c-8.736,4.875-19.762,7.46-34.167,6.667
			c6.968,6.892,12.765,11.692,20.833,16.666c7.866,4.85,18.674,4.366,26.667,10c7.988,5.631,13.505,23.562,18.333,34.167
			c11.81,25.94,21.153,44.095,42.5,60.833c12.468,9.776,26.022,19.664,50,19.167c7.758,6.144,19.31,16.402,31.667,12.5
			c-0.063-11.162-10.372-18.173-15.833-29.167c-5.26-10.589-7.012-22.814-12.5-31.666c-1.742-2.811-6.784-6.573-7.5-10
			c-1.978-9.469,6.973-16.366,5.833-25.834c1.385-2.804,1.385-11.362,0-14.166c-1.77-9.897-3.505-19.828-10.833-24.167
			c-3.364,11.636-2.593,27.407-13.333,31.667c-5.482-18.685-15.63-32.703-25-47.5c0.467-2.414,1.3,1.278,2.5,0.833
			c10.215,7.008,18.036,16.409,22.5,29.167c4.352-8.153,0.887-21.426,10.833-22.5c21.337-2.306,25.136,53.597,14.167,70
			c9.961,7.442,11.431,25.291,19.167,41.666c4.496,9.517,18.441,17.704,17.5,30c-1.587,20.752-34.957,7.602-43.333-2.5
			c-28.93-0.514-43.684-15.204-60-28.333C160.071,376.873,157.293,374.096,154.167,371.667z"/>
		<path fill-rule="evenodd" clip-rule="evenodd" fill="#FEFEFE" d="M215,372.5c0.935,6.01,5.823,8.066,7.5,13.333
			C212.251,388.816,206.841,375.594,215,372.5z"/>
		<path fill-rule="evenodd" clip-rule="evenodd" fill="#ADC0D1" d="M233.333,11.667c7.507-1.388,20.826-1.388,28.333,0
			C252.223,11.667,242.778,11.667,233.333,11.667z"/>
		<path fill-rule="evenodd" clip-rule="evenodd" fill="#ADC0D1" d="M233.333,480.833c9.444,0,18.889,0,28.333,0
			C254.159,482.221,240.841,482.221,233.333,480.833z"/>
	</g>
</g>
</svg>
