<?xml version="1.0" encoding="iso-8859-1"?>
<!-- Generator: Adobe Illustrator 19.0.0, SVG Export Plug-In . SVG Version: 6.00 Build 0)  -->
<svg version="1.1" id="Capa_1" xmlns="http://www.w3.org/2000/svg" xmlns:xlink="http://www.w3.org/1999/xlink" x="0px" y="0px"
	 viewBox="0 0 512 512" style="enable-background:new 0 0 512 512;" xml:space="preserve">
<path style="fill:#64B5F6;" d="M496,0h-80c-4.246-0.008-8.322,1.673-11.328,4.672l-336,336c-2.999,3.006-4.68,7.082-4.672,11.328v80
	c0,8.837,7.163,16,16,16h416c8.837,0,16-7.163,16-16V16C512,7.163,504.837,0,496,0z"/>
<path d="M496,512H32c-17.673,0-32-14.327-32-32V16C0,7.163,7.163,0,16,0s16,7.163,16,16v464h464c8.837,0,16,7.163,16,16
	S504.837,512,496,512z"/>
<path d="M496,448H80c-8.837,0-16-7.163-16-16v-80c-0.008-4.246,1.673-8.322,4.672-11.328l48-48c6.256-6.256,16.4-6.256,22.656,0
	s6.256,16.4,0,22.656L96,358.624V416h384V32h-57.376l-75.296,75.328c-6.256,6.256-16.4,6.256-22.656,0
	c-6.256-6.256-6.256-16.4,0-22.656l80-80C407.678,1.673,411.754-0.008,416,0h80c8.837,0,16,7.163,16,16v416
	C512,440.837,504.837,448,496,448z"/>
<polygon style="fill:#4CAF50;" points="304,144 208,48 112,144 176,144 176,336 240,336 240,144 "/>
<path d="M240,352h-64c-8.837,0-16-7.163-16-16V160h-48c-8.837,0.016-16.013-7.135-16.029-15.971
	c-0.008-4.26,1.684-8.348,4.701-11.357l96-96c6.24-6.256,16.371-6.269,22.627-0.029c0.01,0.01,0.019,0.019,0.029,0.029l96,96
	c6.256,6.24,6.269,16.371,0.029,22.627c-3.009,3.016-7.096,4.708-11.357,4.701h-48v176C256,344.837,248.837,352,240,352z M192,320
	h32V144c0-8.837,7.163-16,16-16h25.376L208,70.624L150.624,128H176c8.837,0,16,7.163,16,16V320z"/>
<g>
</g>
<g>
</g>
<g>
</g>
<g>
</g>
<g>
</g>
<g>
</g>
<g>
</g>
<g>
</g>
<g>
</g>
<g>
</g>
<g>
</g>
<g>
</g>
<g>
</g>
<g>
</g>
<g>
</g>
</svg>
