<?xml version="1.0" encoding="iso-8859-1"?>
<!-- Generator: Adobe Illustrator 19.0.0, SVG Export Plug-In . SVG Version: 6.00 Build 0)  -->
<svg version="1.1" id="Capa_1" xmlns="http://www.w3.org/2000/svg" xmlns:xlink="http://www.w3.org/1999/xlink" x="0px" y="0px"
	 viewBox="0 0 480 480" style="enable-background:new 0 0 480 480;" xml:space="preserve">
<path style="fill:#64B5F6;" d="M368,256H256c-8.837-0.016-16.013,7.135-16.029,15.971c-0.008,4.26,1.684,8.348,4.701,11.357
	l-9.344,9.344c-6.24-6.256-16.371-6.269-22.627-0.029c-3.016,3.009-4.708,7.096-4.701,11.357v112c0,8.837,7.163,16,16,16
	c88.322-0.106,159.894-71.678,160-160C384,263.163,376.837,256,368,256z"/>
<path style="fill:#42A5F5;" d="M224,288c-4.246-0.008-8.322,1.673-11.328,4.672l-9.344-9.344c6.256-6.24,6.269-16.371,0.029-22.627
	c-3.009-3.016-7.096-4.708-11.357-4.701H48c-8.837,0-16,7.163-16,16c0.106,105.995,86.005,191.894,192,192V288z"/>
<path style="fill:#1E88E5;" d="M203.328,260.672l9.344-9.344c6.24,6.256,16.371,6.269,22.627,0.029
	c3.016-3.009,4.708-7.096,4.701-11.357V64c0-8.837-7.163-16-16-16C100.347,48.141,0.141,148.347,0,272h208
	C208.008,267.754,206.327,263.678,203.328,260.672z"/>
<path style="fill:#1976D2;" d="M244.672,260.672c-2.999,3.006-4.68,7.082-4.672,11.328h240C479.841,130.681,365.319,16.159,224,16
	v240c4.246,0.008,8.322-1.673,11.328-4.672L244.672,260.672z"/>
<circle style="fill:#FAFAFA;" cx="224" cy="272" r="32"/>
<path d="M464,288H256c-8.837,0-16-7.163-16-16s7.163-16,16-16h191.424C439.32,144.973,351.027,56.68,240,48.576V240
	c0,8.837-7.163,16-16,16c-8.837,0-16-7.163-16-16V32c0-8.837,7.163-16,16-16c141.319,0.159,255.841,114.681,256,256
	C480,280.837,472.837,288,464,288z"/>
<path d="M192,288H16c-8.837,0-16-7.163-16-16C0.141,148.347,100.347,48.141,224,48c8.837,0,16,7.163,16,16v176
	c0,8.837-7.163,16-16,16c-8.837,0-16-7.163-16-16V80.672C114.655,88.612,40.612,162.655,32.672,256H192c8.837,0,16,7.163,16,16
	S200.837,288,192,288z"/>
<path d="M224,464c-105.995-0.106-191.894-86.005-192-192c0-8.837,7.163-16,16-16h144c8.837,0,16,7.163,16,16s-7.163,16-16,16H64.768
	C72.51,363.661,132.337,423.475,208,431.2V304c0-8.837,7.163-16,16-16c8.837,0,16,7.163,16,16v144C240,456.837,232.837,464,224,464z
	"/>
<path d="M224,432c-8.837,0-16-7.163-16-16V304c0-8.837,7.163-16,16-16c8.837,0,16,7.163,16,16v95.008
	c57.972-7.39,103.618-53.036,111.008-111.008H256c-8.837,0-16-7.163-16-16s7.163-16,16-16h112c8.837,0,16,7.163,16,16
	C383.894,360.322,312.322,431.894,224,432z"/>
<path d="M224,320c-26.51,0-48-21.49-48-48s21.49-48,48-48s48,21.49,48,48S250.51,320,224,320z M224,256c-8.837,0-16,7.163-16,16
	s7.163,16,16,16c8.837,0,16-7.163,16-16S232.837,256,224,256z"/>
<g>
</g>
<g>
</g>
<g>
</g>
<g>
</g>
<g>
</g>
<g>
</g>
<g>
</g>
<g>
</g>
<g>
</g>
<g>
</g>
<g>
</g>
<g>
</g>
<g>
</g>
<g>
</g>
<g>
</g>
</svg>
