<?xml version="1.0" encoding="iso-8859-1"?>
<!-- Generator: Adobe Illustrator 19.0.0, SVG Export Plug-In . SVG Version: 6.00 Build 0)  -->
<svg version="1.1" id="Capa_1" xmlns="http://www.w3.org/2000/svg" xmlns:xlink="http://www.w3.org/1999/xlink" x="0px" y="0px"
	 viewBox="0 0 512 512" style="enable-background:new 0 0 512 512;" xml:space="preserve">
<path style="fill:#2196F3;" d="M155.712,333.664c-43.401-54.903-34.077-134.594,20.826-177.995
	c18.429-14.568,40.545-23.727,63.878-26.453V0.416C99.657,8.886-7.584,129.861,0.886,270.62
	c3.433,57.046,25.904,111.29,63.818,154.052L155.712,333.664z"/>
<path style="fill:#FFC107;" d="M272.416,129.216c57.664,7.295,103.073,52.704,110.368,110.368h128.8
	C503.377,111.048,400.952,8.623,272.416,0.416V129.216z"/>
<path style="fill:#4CAF50;" d="M382.784,271.584c-8.122,69.513-71.058,119.279-140.57,111.157
	c-23.333-2.726-45.449-11.885-63.878-26.453l-91.008,91.008c105.513,93.551,266.887,83.853,360.438-21.66
	c37.914-42.762,60.385-97.006,63.818-154.052H382.784z"/>
<path d="M256,512C114.615,512,0,397.385,0,256S114.615,0,256,0s256,114.615,256,256C511.841,397.319,397.319,511.841,256,512z
	 M256,32C132.288,32,32,132.288,32,256s100.288,224,224,224s224-100.288,224-224C479.859,132.347,379.653,32.141,256,32z"/>
<path d="M256,384c-70.692,0-128-57.308-128-128s57.308-128,128-128s128,57.308,128,128S326.692,384,256,384z M256,160
	c-53.019,0-96,42.981-96,96s42.981,96,96,96s96-42.981,96-96S309.019,160,256,160z"/>
<path d="M256,160c-8.837,0-16-7.163-16-16V16c0-8.837,7.163-16,16-16c8.837,0,16,7.163,16,16v128C272,152.837,264.837,160,256,160z"
	/>
<path d="M496,272H368c-8.837,0-16-7.163-16-16c0-8.837,7.163-16,16-16h128c8.837,0,16,7.163,16,16C512,264.837,504.837,272,496,272z
	"/>
<path d="M86.4,441.6c-8.837-0.002-15.998-7.167-15.997-16.003c0.001-4.249,1.692-8.324,4.701-11.325l90.56-90.528
	c6.356-6.139,16.485-5.963,22.624,0.394c5.988,6.2,5.988,16.03,0,22.23l-90.56,90.528C94.727,439.907,90.651,441.599,86.4,441.6z"/>
<g>
</g>
<g>
</g>
<g>
</g>
<g>
</g>
<g>
</g>
<g>
</g>
<g>
</g>
<g>
</g>
<g>
</g>
<g>
</g>
<g>
</g>
<g>
</g>
<g>
</g>
<g>
</g>
<g>
</g>
</svg>
