<?xml version="1.0" encoding="iso-8859-1"?>
<!-- Generator: Adobe Illustrator 19.0.0, SVG Export Plug-In . SVG Version: 6.00 Build 0)  -->
<svg version="1.1" id="Capa_1" xmlns="http://www.w3.org/2000/svg" xmlns:xlink="http://www.w3.org/1999/xlink" x="0px" y="0px"
	 viewBox="0 0 512.014 512.014" style="enable-background:new 0 0 512.014 512.014;" xml:space="preserve">
<path style="fill:#1976D2;" d="M469.958,116.359l-208-83.2c-3.82-1.531-8.084-1.531-11.904,0l-208,83.2
	c-6.068,2.432-10.046,8.311-10.048,14.848v249.6c0.002,6.537,3.98,12.416,10.048,14.848l208,83.2
	c1.892,0.76,3.913,1.151,5.952,1.152c1.968,0,3.92-0.358,5.76-1.056l208-80c6.176-2.383,10.247-8.324,10.24-14.944v-252.8
	C480.004,124.67,476.026,118.791,469.958,116.359z"/>
<path style="fill:#2196F3;" d="M405.03,160.583l-144-47.776c-3.262-1.079-6.786-1.079-10.048,0l-144,47.776
	c-4.895,1.624-8.707,5.508-10.24,10.432l-64,205.024c-2.635,8.435,2.067,17.408,10.502,20.043c1.46,0.456,2.977,0.7,4.506,0.725
	l208,3.2h0.256c1.638-0.002,3.267-0.25,4.832-0.736l144-45.728c6.653-2.108,11.173-8.285,11.168-15.264V175.783
	C416.01,168.879,411.585,162.751,405.03,160.583z"/>
<path d="M256.006,512.007c-8.837,0-16-7.163-16-16v-480c0-8.837,7.163-16,16-16c8.837,0,16,7.163,16,16v480
	C272.006,504.843,264.842,512.007,256.006,512.007z"/>
<path d="M496.006,416.007c-2.896,0.001-5.739-0.784-8.224-2.272l-480-288c-7.582-4.542-10.046-14.37-5.504-21.952
	c4.542-7.582,14.37-10.046,21.952-5.504l480,288c7.582,4.539,10.049,14.365,5.51,21.946
	C506.848,413.054,501.633,416.009,496.006,416.007z"/>
<path d="M16.006,416.007C7.169,416.01,0.003,408.849,0,400.012c-0.002-5.628,2.953-10.843,7.782-13.734l480-288
	c7.582-4.542,17.41-2.078,21.952,5.504c4.542,7.582,2.078,17.41-5.504,21.952l0,0l-480,288
	C21.744,415.223,18.902,416.008,16.006,416.007z"/>
<path d="M256.006,480.007c-2.039-0.001-4.06-0.392-5.952-1.152l-208-83.2c-6.068-2.432-10.046-8.311-10.048-14.848v-249.6
	c0.002-6.537,3.98-12.416,10.048-14.848l208-83.2c3.82-1.531,8.084-1.531,11.904,0l208,83.2c6.068,2.432,10.046,8.311,10.048,14.848
	v252.8c0.007,6.62-4.064,12.561-10.24,14.944l-208,80C259.926,479.649,257.974,480.007,256.006,480.007z M64.006,369.991l192,76.8
	l192-73.792V142.023l-192-76.8l-192,76.8V369.991z"/>
<path d="M256.006,400.007h-0.256l-208-3.2c-8.836-0.128-15.894-7.395-15.766-16.231c0.022-1.539,0.267-3.068,0.726-4.537l64-205.024
	c1.539-4.932,5.365-8.817,10.272-10.432l144-47.776c3.262-1.079,6.786-1.079,10.048,0l144,47.776
	c6.555,2.168,10.98,8.296,10.976,15.2v162.496c0.005,6.979-4.515,13.156-11.168,15.264l-144,45.728
	C259.273,399.759,257.644,400.007,256.006,400.007z M69.67,365.127l184,2.848l130.336-41.376V187.335l-128-42.464l-131.2,43.52
	L69.67,365.127z"/>
<g>
</g>
<g>
</g>
<g>
</g>
<g>
</g>
<g>
</g>
<g>
</g>
<g>
</g>
<g>
</g>
<g>
</g>
<g>
</g>
<g>
</g>
<g>
</g>
<g>
</g>
<g>
</g>
<g>
</g>
</svg>
