<?xml version="1.0" encoding="iso-8859-1"?>
<!-- Generator: Adobe Illustrator 19.0.0, SVG Export Plug-In . SVG Version: 6.00 Build 0)  -->
<svg version="1.1" id="Capa_1" xmlns="http://www.w3.org/2000/svg" xmlns:xlink="http://www.w3.org/1999/xlink" x="0px" y="0px"
	 viewBox="0 0 512 512" style="enable-background:new 0 0 512 512;" xml:space="preserve">
<path style="fill:#4CAF50;" d="M272,240h239.2C503.173,111.365,400.635,8.827,272,0.8V240z"/>
<path style="fill:#FFC107;" d="M262.624,272L86.848,447.808c105.658,93.521,267.125,83.682,360.646-21.976
	c37.817-42.725,60.244-96.88,63.706-153.832H262.624z"/>
<path style="fill:#2196F3;" d="M240,249.376V0.8C99.158,9.362-8.076,130.478,0.486,271.32
	c3.462,56.952,25.889,111.107,63.706,153.832L240,249.376z"/>
<path d="M256,512C114.615,512,0,397.385,0,256S114.615,0,256,0s256,114.615,256,256C511.841,397.319,397.319,511.841,256,512z
	 M256,32C132.288,32,32,132.288,32,256s100.288,224,224,224s224-100.288,224-224C479.859,132.347,379.653,32.141,256,32z"/>
<path d="M86.4,441.6c-8.837-0.002-15.998-7.167-15.997-16.003c0.001-4.249,1.692-8.324,4.701-11.325L240,249.376V16
	c0-8.837,7.163-16,16-16c8.837,0,16,7.163,16,16v240c0.008,4.246-1.673,8.322-4.672,11.328l-169.6,169.6
	C94.722,439.927,90.646,441.608,86.4,441.6z"/>
<path d="M496,272H256c-8.837,0-16-7.163-16-16c0-8.837,7.163-16,16-16h240c8.837,0,16,7.163,16,16C512,264.837,504.837,272,496,272z
	"/>
<g>
</g>
<g>
</g>
<g>
</g>
<g>
</g>
<g>
</g>
<g>
</g>
<g>
</g>
<g>
</g>
<g>
</g>
<g>
</g>
<g>
</g>
<g>
</g>
<g>
</g>
<g>
</g>
<g>
</g>
</svg>
