<?xml version="1.0" encoding="iso-8859-1"?>
<!-- Generator: Adobe Illustrator 19.0.0, SVG Export Plug-In . SVG Version: 6.00 Build 0)  -->
<svg version="1.1" id="Capa_1" xmlns="http://www.w3.org/2000/svg" xmlns:xlink="http://www.w3.org/1999/xlink" x="0px" y="0px"
	 viewBox="0 0 512 512" style="enable-background:new 0 0 512 512;" xml:space="preserve">
<path style="fill:#2196F3;" d="M480,34.174V368H336L176,155.565H32V34.174C32,25.794,39.163,19,48,19h416
	C472.837,19,480,25.794,480,34.174z"/>
<path style="fill:#64B5F6;" d="M480,354v120c0,8.284-7.163,15-16,15H48c-8.837,0-16-6.716-16-15V144h144l160,210H480z"/>
<g>
	<circle style="fill:#FFC107;" cx="48" cy="144" r="48"/>
	<circle style="fill:#FFC107;" cx="176" cy="144" r="48"/>
	<circle style="fill:#FFC107;" cx="336" cy="368" r="48"/>
	<circle style="fill:#FFC107;" cx="464" cy="368" r="48"/>
</g>
<path d="M448,512H64c-17.673,0-32-14.327-32-32V176c0-8.837,7.163-16,16-16s16,7.163,16,16v304h384v-80c0-8.837,7.163-16,16-16
	s16,7.163,16,16v80C480,497.673,465.673,512,448,512z"/>
<path d="M464,288c-8.837,0-16-7.163-16-16V32H64v16c0,8.837-7.163,16-16,16s-16-7.163-16-16V32C32,14.327,46.327,0,64,0h384
	c17.673,0,32,14.327,32,32v240C480,280.837,472.837,288,464,288z"/>
<path d="M48,192c-26.51,0-48-21.49-48-48s21.49-48,48-48s48,21.49,48,48S74.51,192,48,192z M48,128c-8.837,0-16,7.163-16,16
	s7.163,16,16,16s16-7.163,16-16S56.837,128,48,128z"/>
<path d="M176,192c-26.51,0-48-21.49-48-48s21.49-48,48-48s48,21.49,48,48S202.51,192,176,192z M176,128c-8.837,0-16,7.163-16,16
	s7.163,16,16,16s16-7.163,16-16S184.837,128,176,128z"/>
<path d="M336,416c-26.51,0-48-21.49-48-48s21.49-48,48-48s48,21.49,48,48S362.51,416,336,416z M336,352c-8.837,0-16,7.163-16,16
	s7.163,16,16,16s16-7.163,16-16S344.837,352,336,352z"/>
<path d="M464,416c-26.51,0-48-21.49-48-48s21.49-48,48-48s48,21.49,48,48S490.51,416,464,416z M464,352c-8.837,0-16,7.163-16,16
	s7.163,16,16,16s16-7.163,16-16S472.837,352,464,352z"/>
<path d="M144,160H80c-8.837,0-16-7.163-16-16s7.163-16,16-16h64c8.837,0,16,7.163,16,16S152.837,160,144,160z"/>
<path d="M432,384h-64c-8.837,0-16-7.163-16-16s7.163-16,16-16h64c8.837,0,16,7.163,16,16S440.837,384,432,384z"/>
<path d="M317.44,358.08c-5.172-0.003-10.024-2.507-13.024-6.72L181.536,179.2c-5.353-7.03-3.994-17.069,3.037-22.423
	c7.03-5.353,17.069-3.994,22.423,3.037c0.205,0.269,0.401,0.544,0.588,0.826l122.88,172.16c5.125,7.198,3.445,17.189-3.754,22.314
	C324.003,357.041,320.763,358.078,317.44,358.08z"/>
<g>
</g>
<g>
</g>
<g>
</g>
<g>
</g>
<g>
</g>
<g>
</g>
<g>
</g>
<g>
</g>
<g>
</g>
<g>
</g>
<g>
</g>
<g>
</g>
<g>
</g>
<g>
</g>
<g>
</g>
</svg>
