<?xml version="1.0" encoding="iso-8859-1"?>
<!-- Generator: Adobe Illustrator 19.0.0, SVG Export Plug-In . SVG Version: 6.00 Build 0)  -->
<svg version="1.1" id="Capa_1" xmlns="http://www.w3.org/2000/svg" xmlns:xlink="http://www.w3.org/1999/xlink" x="0px" y="0px"
	 viewBox="0 0 480 480" style="enable-background:new 0 0 480 480;" xml:space="preserve">
<path style="fill:#1E88E5;" d="M368,16h64c8.837,0,16,7.163,16,16v400c0,8.837-7.163,16-16,16h-64c-8.837,0-16-7.163-16-16V32
	C352,23.163,359.163,16,368,16z"/>
<path style="fill:#2196F3;" d="M208,240h64c8.837,0,16,7.163,16,16v176c0,8.837-7.163,16-16,16h-64c-8.837,0-16-7.163-16-16V256
	C192,247.163,199.163,240,208,240z"/>
<path style="fill:#64B5F6;" d="M48,144h64c8.837,0,16,7.163,16,16v272c0,8.837-7.163,16-16,16H48c-8.837,0-16-7.163-16-16V160
	C32,151.163,39.163,144,48,144z"/>
<path d="M464,464H16c-8.837,0-16-7.163-16-16s7.163-16,16-16h448c8.837,0,16,7.163,16,16S472.837,464,464,464z"/>
<path d="M432,464c-8.837,0-16-7.163-16-16V48h-32v400c0,8.837-7.163,16-16,16s-16-7.163-16-16V32c0-8.837,7.163-16,16-16h64
	c8.837,0,16,7.163,16,16v416C448,456.837,440.837,464,432,464z"/>
<path d="M272,464c-8.837,0-16-7.163-16-16V272h-32v176c0,8.837-7.163,16-16,16s-16-7.163-16-16V256c0-8.837,7.163-16,16-16h64
	c8.837,0,16,7.163,16,16v192C288,456.837,280.837,464,272,464z"/>
<path d="M112,464c-8.837,0-16-7.163-16-16V144H64v304c0,8.837-7.163,16-16,16s-16-7.163-16-16V128c0-8.837,7.163-16,16-16h64
	c8.837,0,16,7.163,16,16v320C128,456.837,120.837,464,112,464z"/>
<g>
</g>
<g>
</g>
<g>
</g>
<g>
</g>
<g>
</g>
<g>
</g>
<g>
</g>
<g>
</g>
<g>
</g>
<g>
</g>
<g>
</g>
<g>
</g>
<g>
</g>
<g>
</g>
<g>
</g>
</svg>
