<svg width="500" height="500" viewBox="0 0 500 500" fill="none" xmlns="http://www.w3.org/2000/svg">
<rect width="500" height="500" fill="white"/>
<path d="M69.9396 323L80.7351 289.832H133.221L144.016 323H176.971L126.829 177.545H87.1982L36.9851 323H69.9396ZM88.5476 265.827L106.445 210.784H107.582L125.479 265.827H88.5476ZM281.942 213.909H249.911L227.326 291.963H226.19L203.533 213.909H171.573L209.712 323H243.803L281.942 213.909ZM342.862 366.182C374.041 366.182 396.2 351.977 396.2 324.065V213.909H366.158V232.233H365.021C360.973 223.355 352.095 212.489 333.842 212.489C309.908 212.489 289.666 231.097 289.666 268.241C289.666 304.534 309.339 321.438 333.913 321.438C351.314 321.438 361.044 312.702 365.021 303.682H366.3V323.639C366.3 338.625 356.712 344.449 343.572 344.449C330.22 344.449 323.473 338.625 320.987 332.02L293.004 335.784C296.626 352.972 313.459 366.182 342.862 366.182ZM343.501 298.71C328.658 298.71 320.561 286.92 320.561 268.099C320.561 249.562 328.516 236.565 343.501 236.565C358.203 236.565 366.442 248.994 366.442 268.099C366.442 287.347 358.061 298.71 343.501 298.71Z" fill="#1A7FA0"/>
<path d="M437.962 324.847C447.053 324.847 454.936 317.247 455.007 307.801C454.936 298.497 447.053 290.898 437.962 290.898C428.587 290.898 420.845 298.497 420.916 307.801C420.845 317.247 428.587 324.847 437.962 324.847Z" fill="#F69977"/>
<path d="M171 179H455" stroke="#F69977" stroke-width="28"/>
</svg>
